<?xml version="1.0" encoding="utf-8" standalone="no"?>
<!DOCTYPE svg PUBLIC "-//W3C//DTD SVG 1.1//EN"
  "http://www.w3.org/Graphics/SVG/1.1/DTD/svg11.dtd">
<svg xmlns:xlink="http://www.w3.org/1999/xlink" width="828pt" height="244.8pt" viewBox="0 0 828 244.8" xmlns="http://www.w3.org/2000/svg" version="1.1">
 <metadata>
  <rdf:RDF xmlns:dc="http://purl.org/dc/elements/1.1/" xmlns:cc="http://creativecommons.org/ns#" xmlns:rdf="http://www.w3.org/1999/02/22-rdf-syntax-ns#">
   <cc:Work>
    <dc:type rdf:resource="http://purl.org/dc/dcmitype/StillImage"/>
    <dc:date>2026-09-05T11:57:29.023272</dc:date>
    <dc:format>image/svg+xml</dc:format>
    <dc:creator>
     <cc:Agent>
      <dc:title>Matplotlib v3.7.1, https://matplotlib.org/</dc:title>
     </cc:Agent>
    </dc:creator>
   </cc:Work>
  </rdf:RDF>
 </metadata>
 <defs>
  <style type="text/css">*{stroke-linejoin: round; stroke-linecap: butt}</style>
 </defs>
 <g id="figure_1">
  <g id="patch_1">
   <path d="M 0 244.8 
L 828 244.8 
L 828 0 
L 0 0 
z
" style="fill: #ffffff"/>
  </g>
  <g id="axes_1">
   <g id="patch_2">
    <path d="M 52.85 202.84 
L 810.9135 202.84 
L 810.9135 25.44 
L 52.85 25.44 
z
" style="fill: #ffffff"/>
   </g>
   <g id="patch_3">
    <path d="M 53.608064 156.809082 
L 59.672572 156.809082 
L 59.672572 161.434206 
L 53.608064 161.434206 
z
" clip-path="url(#pb87cb50bb9)" style="fill: #5fd6e8; opacity: 0.9"/>
   </g>
   <g id="patch_4">
    <path d="M 61.188699 156.809082 
L 67.253207 156.809082 
L 67.253207 138.478235 
L 61.188699 138.478235 
z
" clip-path="url(#pb87cb50bb9)" style="fill: #5fd6e8; opacity: 0.9"/>
   </g>
   <g id="patch_5">
    <path d="M 68.769334 156.809082 
L 74.833842 156.809082 
L 74.833842 164.987482 
L 68.769334 164.987482 
z
" clip-path="url(#pb87cb50bb9)" style="fill: #5fd6e8; opacity: 0.9"/>
   </g>
   <g id="patch_6">
    <path d="M 76.349969 156.809082 
L 82.414477 156.809082 
L 82.414477 154.372015 
L 76.349969 154.372015 
z
" clip-path="url(#pb87cb50bb9)" style="fill: #5fd6e8; opacity: 0.9"/>
   </g>
   <g id="patch_7">
    <path d="M 83.930604 156.809082 
L 89.995112 156.809082 
L 89.995112 153.543082 
L 83.930604 153.543082 
z
" clip-path="url(#pb87cb50bb9)" style="fill: #5fd6e8; opacity: 0.9"/>
   </g>
   <g id="patch_8">
    <path d="M 91.511239 156.809082 
L 97.575747 156.809082 
L 97.575747 144.434261 
L 91.511239 144.434261 
z
" clip-path="url(#pb87cb50bb9)" style="fill: #5fd6e8; opacity: 0.9"/>
   </g>
   <g id="patch_9">
    <path d="M 99.091874 156.809082 
L 105.156382 156.809082 
L 105.156382 159.443634 
L 99.091874 159.443634 
z
" clip-path="url(#pb87cb50bb9)" style="fill: #5fd6e8; opacity: 0.9"/>
   </g>
   <g id="patch_10">
    <path d="M 106.672509 156.809082 
L 112.737017 156.809082 
L 112.737017 163.447297 
L 106.672509 163.447297 
z
" clip-path="url(#pb87cb50bb9)" style="fill: #5fd6e8; opacity: 0.9"/>
   </g>
   <g id="patch_11">
    <path d="M 114.253144 156.809082 
L 120.317652 156.809082 
L 120.317652 155.293326 
L 114.253144 155.293326 
z
" clip-path="url(#pb87cb50bb9)" style="fill: #5fd6e8; opacity: 0.9"/>
   </g>
   <g id="patch_12">
    <path d="M 121.833779 156.809082 
L 127.898287 156.809082 
L 127.898287 168.042869 
L 121.833779 168.042869 
z
" clip-path="url(#pb87cb50bb9)" style="fill: #5fd6e8; opacity: 0.9"/>
   </g>
   <g id="patch_13">
    <path d="M 129.414414 156.809082 
L 135.478922 156.809082 
L 135.478922 162.562723 
L 129.414414 162.562723 
z
" clip-path="url(#pb87cb50bb9)" style="fill: #5fd6e8; opacity: 0.9"/>
   </g>
   <g id="patch_14">
    <path d="M 136.995049 156.809082 
L 143.059557 156.809082 
L 143.059557 190.852678 
L 136.995049 190.852678 
z
" clip-path="url(#pb87cb50bb9)" style="fill: #5fd6e8; opacity: 0.9"/>
   </g>
   <g id="patch_15">
    <path d="M 144.575684 156.809082 
L 150.640192 156.809082 
L 150.640192 175.750972 
L 144.575684 175.750972 
z
" clip-path="url(#pb87cb50bb9)" style="fill: #5fd6e8; opacity: 0.9"/>
   </g>
   <g id="patch_16">
    <path d="M 152.156319 156.809082 
L 158.220827 156.809082 
L 158.220827 156.669191 
L 152.156319 156.669191 
z
" clip-path="url(#pb87cb50bb9)" style="fill: #5fd6e8; opacity: 0.9"/>
   </g>
   <g id="patch_17">
    <path d="M 159.736953 156.809082 
L 165.801462 156.809082 
L 165.801462 139.491814 
L 159.736953 139.491814 
z
" clip-path="url(#pb87cb50bb9)" style="fill: #5fd6e8; opacity: 0.9"/>
   </g>
   <g id="patch_18">
    <path d="M 167.317588 156.809082 
L 173.382096 156.809082 
L 173.382096 151.154305 
L 167.317588 151.154305 
z
" clip-path="url(#pb87cb50bb9)" style="fill: #5fd6e8; opacity: 0.9"/>
   </g>
   <g id="patch_19">
    <path d="M 174.898224 156.809082 
L 180.962732 156.809082 
L 180.962732 159.602054 
L 174.898224 159.602054 
z
" clip-path="url(#pb87cb50bb9)" style="fill: #5fd6e8; opacity: 0.9"/>
   </g>
   <g id="patch_20">
    <path d="M 182.478859 156.809082 
L 188.543367 156.809082 
L 188.543367 156.892384 
L 182.478859 156.892384 
z
" clip-path="url(#pb87cb50bb9)" style="fill: #5fd6e8; opacity: 0.9"/>
   </g>
   <g id="patch_21">
    <path d="M 190.059494 156.809082 
L 196.124002 156.809082 
L 196.124002 164.52942 
L 190.059494 164.52942 
z
" clip-path="url(#pb87cb50bb9)" style="fill: #5fd6e8; opacity: 0.9"/>
   </g>
   <g id="patch_22">
    <path d="M 197.640129 156.809082 
L 203.704637 156.809082 
L 203.704637 157.214298 
L 197.640129 157.214298 
z
" clip-path="url(#pb87cb50bb9)" style="fill: #5fd6e8; opacity: 0.9"/>
   </g>
   <g id="patch_23">
    <path d="M 205.220764 156.809082 
L 211.285272 156.809082 
L 211.285272 144.284125 
L 205.220764 144.284125 
z
" clip-path="url(#pb87cb50bb9)" style="fill: #5fd6e8; opacity: 0.9"/>
   </g>
   <g id="patch_24">
    <path d="M 212.801399 156.809082 
L 218.865907 156.809082 
L 218.865907 137.507564 
L 212.801399 137.507564 
z
" clip-path="url(#pb87cb50bb9)" style="fill: #5fd6e8; opacity: 0.9"/>
   </g>
   <g id="patch_25">
    <path d="M 220.382034 156.809082 
L 226.446542 156.809082 
L 226.446542 153.056791 
L 220.382034 153.056791 
z
" clip-path="url(#pb87cb50bb9)" style="fill: #5fd6e8; opacity: 0.9"/>
   </g>
   <g id="patch_26">
    <path d="M 227.962669 156.809082 
L 234.027177 156.809082 
L 234.027177 157.647198 
L 227.962669 157.647198 
z
" clip-path="url(#pb87cb50bb9)" style="fill: #5fd6e8; opacity: 0.9"/>
   </g>
   <g id="patch_27">
    <path d="M 235.543304 156.809082 
L 241.607812 156.809082 
L 241.607812 172.71262 
L 235.543304 172.71262 
z
" clip-path="url(#pb87cb50bb9)" style="fill: #5fd6e8; opacity: 0.9"/>
   </g>
   <g id="patch_28">
    <path d="M 243.123939 156.809082 
L 249.188447 156.809082 
L 249.188447 164.571201 
L 243.123939 164.571201 
z
" clip-path="url(#pb87cb50bb9)" style="fill: #5fd6e8; opacity: 0.9"/>
   </g>
   <g id="patch_29">
    <path d="M 250.704574 156.809082 
L 256.769082 156.809082 
L 256.769082 144.438127 
L 250.704574 144.438127 
z
" clip-path="url(#pb87cb50bb9)" style="fill: #5fd6e8; opacity: 0.9"/>
   </g>
   <g id="patch_30">
    <path d="M 258.285209 156.809082 
L 264.349716 156.809082 
L 264.349716 156.669392 
L 258.285209 156.669392 
z
" clip-path="url(#pb87cb50bb9)" style="fill: #5fd6e8; opacity: 0.9"/>
   </g>
   <g id="patch_31">
    <path d="M 265.865844 156.809082 
L 271.930352 156.809082 
L 271.930352 157.26608 
L 265.865844 157.26608 
z
" clip-path="url(#pb87cb50bb9)" style="fill: #5fd6e8; opacity: 0.9"/>
   </g>
   <g id="patch_32">
    <path d="M 273.446479 156.809082 
L 279.510987 156.809082 
L 279.510987 178.320586 
L 273.446479 178.320586 
z
" clip-path="url(#pb87cb50bb9)" style="fill: #5fd6e8; opacity: 0.9"/>
   </g>
   <g id="patch_33">
    <path d="M 281.027114 156.809082 
L 287.091622 156.809082 
L 287.091622 154.982623 
L 281.027114 154.982623 
z
" clip-path="url(#pb87cb50bb9)" style="fill: #5fd6e8; opacity: 0.9"/>
   </g>
   <g id="patch_34">
    <path d="M 288.607749 156.809082 
L 294.672257 156.809082 
L 294.672257 152.530997 
L 288.607749 152.530997 
z
" clip-path="url(#pb87cb50bb9)" style="fill: #5fd6e8; opacity: 0.9"/>
   </g>
   <g id="patch_35">
    <path d="M 296.188384 156.809082 
L 302.252892 156.809082 
L 302.252892 144.169159 
L 296.188384 144.169159 
z
" clip-path="url(#pb87cb50bb9)" style="fill: #5fd6e8; opacity: 0.9"/>
   </g>
   <g id="patch_36">
    <path d="M 303.769019 156.809082 
L 309.833527 156.809082 
L 309.833527 158.690255 
L 303.769019 158.690255 
z
" clip-path="url(#pb87cb50bb9)" style="fill: #5fd6e8; opacity: 0.9"/>
   </g>
   <g id="patch_37">
    <path d="M 311.349654 156.809082 
L 317.414162 156.809082 
L 317.414162 158.39035 
L 311.349654 158.39035 
z
" clip-path="url(#pb87cb50bb9)" style="fill: #5fd6e8; opacity: 0.9"/>
   </g>
   <g id="patch_38">
    <path d="M 318.930289 156.809082 
L 324.994797 156.809082 
L 324.994797 153.290986 
L 318.930289 153.290986 
z
" clip-path="url(#pb87cb50bb9)" style="fill: #5fd6e8; opacity: 0.9"/>
   </g>
   <g id="patch_39">
    <path d="M 326.510924 156.809082 
L 332.575432 156.809082 
L 332.575432 171.162185 
L 326.510924 171.162185 
z
" clip-path="url(#pb87cb50bb9)" style="fill: #5fd6e8; opacity: 0.9"/>
   </g>
   <g id="patch_40">
    <path d="M 334.091559 156.809082 
L 340.156067 156.809082 
L 340.156067 151.052319 
L 334.091559 151.052319 
z
" clip-path="url(#pb87cb50bb9)" style="fill: #5fd6e8; opacity: 0.9"/>
   </g>
   <g id="patch_41">
    <path d="M 341.672193 156.809082 
L 347.736701 156.809082 
L 347.736701 161.966538 
L 341.672193 161.966538 
z
" clip-path="url(#pb87cb50bb9)" style="fill: #5fd6e8; opacity: 0.9"/>
   </g>
   <g id="patch_42">
    <path d="M 349.252829 156.809082 
L 355.317337 156.809082 
L 355.317337 157.753686 
L 349.252829 157.753686 
z
" clip-path="url(#pb87cb50bb9)" style="fill: #5fd6e8; opacity: 0.9"/>
   </g>
   <g id="patch_43">
    <path d="M 356.833463 156.809082 
L 362.897971 156.809082 
L 362.897971 171.502604 
L 356.833463 171.502604 
z
" clip-path="url(#pb87cb50bb9)" style="fill: #5fd6e8; opacity: 0.9"/>
   </g>
   <g id="patch_44">
    <path d="M 364.414099 156.809082 
L 370.478607 156.809082 
L 370.478607 162.033405 
L 364.414099 162.033405 
z
" clip-path="url(#pb87cb50bb9)" style="fill: #5fd6e8; opacity: 0.9"/>
   </g>
   <g id="patch_45">
    <path d="M 371.994733 156.809082 
L 378.059241 156.809082 
L 378.059241 155.280939 
L 371.994733 155.280939 
z
" clip-path="url(#pb87cb50bb9)" style="fill: #5fd6e8; opacity: 0.9"/>
   </g>
   <g id="patch_46">
    <path d="M 379.575369 156.809082 
L 385.639877 156.809082 
L 385.639877 160.559677 
L 379.575369 160.559677 
z
" clip-path="url(#pb87cb50bb9)" style="fill: #5fd6e8; opacity: 0.9"/>
   </g>
   <g id="patch_47">
    <path d="M 387.156003 156.809082 
L 393.220511 156.809082 
L 393.220511 183.720082 
L 387.156003 183.720082 
z
" clip-path="url(#pb87cb50bb9)" style="fill: #5fd6e8; opacity: 0.9"/>
   </g>
   <g id="patch_48">
    <path d="M 394.736639 156.809082 
L 400.801147 156.809082 
L 400.801147 160.57857 
L 394.736639 160.57857 
z
" clip-path="url(#pb87cb50bb9)" style="fill: #5fd6e8; opacity: 0.9"/>
   </g>
   <g id="patch_49">
    <path d="M 402.317273 156.809082 
L 408.381781 156.809082 
L 408.381781 163.79591 
L 402.317273 163.79591 
z
" clip-path="url(#pb87cb50bb9)" style="fill: #5fd6e8; opacity: 0.9"/>
   </g>
   <g id="patch_50">
    <path d="M 409.897909 156.809082 
L 415.962417 156.809082 
L 415.962417 149.023943 
L 409.897909 149.023943 
z
" clip-path="url(#pb87cb50bb9)" style="fill: #5fd6e8; opacity: 0.9"/>
   </g>
   <g id="patch_51">
    <path d="M 417.478544 156.809082 
L 423.543051 156.809082 
L 423.543051 160.395259 
L 417.478544 160.395259 
z
" clip-path="url(#pb87cb50bb9)" style="fill: #5fd6e8; opacity: 0.9"/>
   </g>
   <g id="patch_52">
    <path d="M 425.059179 156.809082 
L 431.123687 156.809082 
L 431.123687 156.892068 
L 425.059179 156.892068 
z
" clip-path="url(#pb87cb50bb9)" style="fill: #5fd6e8; opacity: 0.9"/>
   </g>
   <g id="patch_53">
    <path d="M 432.639814 156.809082 
L 438.704321 156.809082 
L 438.704321 175.61486 
L 432.639814 175.61486 
z
" clip-path="url(#pb87cb50bb9)" style="fill: #5fd6e8; opacity: 0.9"/>
   </g>
   <g id="patch_54">
    <path d="M 440.220449 156.809082 
L 446.284957 156.809082 
L 446.284957 150.531131 
L 440.220449 150.531131 
z
" clip-path="url(#pb87cb50bb9)" style="fill: #5fd6e8; opacity: 0.9"/>
   </g>
   <g id="patch_55">
    <path d="M 447.801084 156.809082 
L 453.865591 156.809082 
L 453.865591 152.03108 
L 447.801084 152.03108 
z
" clip-path="url(#pb87cb50bb9)" style="fill: #5fd6e8; opacity: 0.9"/>
   </g>
   <g id="patch_56">
    <path d="M 455.381719 156.809082 
L 461.446227 156.809082 
L 461.446227 137.948209 
L 455.381719 137.948209 
z
" clip-path="url(#pb87cb50bb9)" style="fill: #5fd6e8; opacity: 0.9"/>
   </g>
   <g id="patch_57">
    <path d="M 462.962354 156.809082 
L 469.026861 156.809082 
L 469.026861 177.224998 
L 462.962354 177.224998 
z
" clip-path="url(#pb87cb50bb9)" style="fill: #5fd6e8; opacity: 0.9"/>
   </g>
   <g id="patch_58">
    <path d="M 470.542989 156.809082 
L 476.607497 156.809082 
L 476.607497 157.833135 
L 470.542989 157.833135 
z
" clip-path="url(#pb87cb50bb9)" style="fill: #5fd6e8; opacity: 0.9"/>
   </g>
   <g id="patch_59">
    <path d="M 478.123624 156.809082 
L 484.188131 156.809082 
L 484.188131 165.802196 
L 478.123624 165.802196 
z
" clip-path="url(#pb87cb50bb9)" style="fill: #5fd6e8; opacity: 0.9"/>
   </g>
   <g id="patch_60">
    <path d="M 485.704259 156.809082 
L 491.768767 156.809082 
L 491.768767 159.553721 
L 485.704259 159.553721 
z
" clip-path="url(#pb87cb50bb9)" style="fill: #5fd6e8; opacity: 0.9"/>
   </g>
   <g id="patch_61">
    <path d="M 493.284894 156.809082 
L 499.349401 156.809082 
L 499.349401 159.345832 
L 493.284894 159.345832 
z
" clip-path="url(#pb87cb50bb9)" style="fill: #5fd6e8; opacity: 0.9"/>
   </g>
   <g id="patch_62">
    <path d="M 500.865529 156.809082 
L 506.930037 156.809082 
L 506.930037 157.987591 
L 500.865529 157.987591 
z
" clip-path="url(#pb87cb50bb9)" style="fill: #5fd6e8; opacity: 0.9"/>
   </g>
   <g id="patch_63">
    <path d="M 508.446164 156.809082 
L 514.510671 156.809082 
L 514.510671 156.166104 
L 508.446164 156.166104 
z
" clip-path="url(#pb87cb50bb9)" style="fill: #5fd6e8; opacity: 0.9"/>
   </g>
   <g id="patch_64">
    <path d="M 516.026799 156.809082 
L 522.091306 156.809082 
L 522.091306 164.98182 
L 516.026799 164.98182 
z
" clip-path="url(#pb87cb50bb9)" style="fill: #5fd6e8; opacity: 0.9"/>
   </g>
   <g id="patch_65">
    <path d="M 523.607434 156.809082 
L 529.671942 156.809082 
L 529.671942 153.892299 
L 523.607434 153.892299 
z
" clip-path="url(#pb87cb50bb9)" style="fill: #5fd6e8; opacity: 0.9"/>
   </g>
   <g id="patch_66">
    <path d="M 531.188069 156.809082 
L 537.252577 156.809082 
L 537.252577 163.105897 
L 531.188069 163.105897 
z
" clip-path="url(#pb87cb50bb9)" style="fill: #5fd6e8; opacity: 0.9"/>
   </g>
   <g id="patch_67">
    <path d="M 538.768704 156.809082 
L 544.833211 156.809082 
L 544.833211 162.738639 
L 538.768704 162.738639 
z
" clip-path="url(#pb87cb50bb9)" style="fill: #5fd6e8; opacity: 0.9"/>
   </g>
   <g id="patch_68">
    <path d="M 546.349339 156.809082 
L 552.413846 156.809082 
L 552.413846 155.432794 
L 546.349339 155.432794 
z
" clip-path="url(#pb87cb50bb9)" style="fill: #5fd6e8; opacity: 0.9"/>
   </g>
   <g id="patch_69">
    <path d="M 553.929973 156.809082 
L 559.994481 156.809082 
L 559.994481 123.364121 
L 553.929973 123.364121 
z
" clip-path="url(#pb87cb50bb9)" style="fill: #5fd6e8; opacity: 0.9"/>
   </g>
   <g id="patch_70">
    <path d="M 561.510608 156.809082 
L 567.575116 156.809082 
L 567.575116 156.459437 
L 561.510608 156.459437 
z
" clip-path="url(#pb87cb50bb9)" style="fill: #5fd6e8; opacity: 0.9"/>
   </g>
   <g id="patch_71">
    <path d="M 569.091244 156.809082 
L 575.155751 156.809082 
L 575.155751 165.65096 
L 569.091244 165.65096 
z
" clip-path="url(#pb87cb50bb9)" style="fill: #5fd6e8; opacity: 0.9"/>
   </g>
   <g id="patch_72">
    <path d="M 576.671878 156.809082 
L 582.736386 156.809082 
L 582.736386 168.378715 
L 576.671878 168.378715 
z
" clip-path="url(#pb87cb50bb9)" style="fill: #5fd6e8; opacity: 0.9"/>
   </g>
   <g id="patch_73">
    <path d="M 584.252513 156.809082 
L 590.317021 156.809082 
L 590.317021 168.913864 
L 584.252513 168.913864 
z
" clip-path="url(#pb87cb50bb9)" style="fill: #5fd6e8; opacity: 0.9"/>
   </g>
   <g id="patch_74">
    <path d="M 591.833148 156.809082 
L 597.897656 156.809082 
L 597.897656 146.573465 
L 591.833148 146.573465 
z
" clip-path="url(#pb87cb50bb9)" style="fill: #5fd6e8; opacity: 0.9"/>
   </g>
   <g id="patch_75">
    <path d="M 599.413784 156.809082 
L 605.478291 156.809082 
L 605.478291 189.789264 
L 599.413784 189.789264 
z
" clip-path="url(#pb87cb50bb9)" style="fill: #5fd6e8; opacity: 0.9"/>
   </g>
   <g id="patch_76">
    <path d="M 606.994418 156.809082 
L 613.058926 156.809082 
L 613.058926 180.900927 
L 606.994418 180.900927 
z
" clip-path="url(#pb87cb50bb9)" style="fill: #5fd6e8; opacity: 0.9"/>
   </g>
   <g id="patch_77">
    <path d="M 614.575053 156.809082 
L 620.639561 156.809082 
L 620.639561 165.35775 
L 614.575053 165.35775 
z
" clip-path="url(#pb87cb50bb9)" style="fill: #5fd6e8; opacity: 0.9"/>
   </g>
   <g id="patch_78">
    <path d="M 622.155688 156.809082 
L 628.220196 156.809082 
L 628.220196 158.032636 
L 622.155688 158.032636 
z
" clip-path="url(#pb87cb50bb9)" style="fill: #5fd6e8; opacity: 0.9"/>
   </g>
   <g id="patch_79">
    <path d="M 629.736323 156.809082 
L 635.800831 156.809082 
L 635.800831 163.963881 
L 629.736323 163.963881 
z
" clip-path="url(#pb87cb50bb9)" style="fill: #5fd6e8; opacity: 0.9"/>
   </g>
   <g id="patch_80">
    <path d="M 637.316958 156.809082 
L 643.381466 156.809082 
L 643.381466 140.572537 
L 637.316958 140.572537 
z
" clip-path="url(#pb87cb50bb9)" style="fill: #5fd6e8; opacity: 0.9"/>
   </g>
   <g id="patch_81">
    <path d="M 644.897593 156.809082 
L 650.962101 156.809082 
L 650.962101 127.826499 
L 644.897593 127.826499 
z
" clip-path="url(#pb87cb50bb9)" style="fill: #5fd6e8; opacity: 0.9"/>
   </g>
   <g id="patch_82">
    <path d="M 652.478229 156.809082 
L 658.542736 156.809082 
L 658.542736 160.184372 
L 652.478229 160.184372 
z
" clip-path="url(#pb87cb50bb9)" style="fill: #5fd6e8; opacity: 0.9"/>
   </g>
   <g id="patch_83">
    <path d="M 660.058863 156.809082 
L 666.123371 156.809082 
L 666.123371 155.841262 
L 660.058863 155.841262 
z
" clip-path="url(#pb87cb50bb9)" style="fill: #5fd6e8; opacity: 0.9"/>
   </g>
   <g id="patch_84">
    <path d="M 667.639498 156.809082 
L 673.704006 156.809082 
L 673.704006 156.132491 
L 667.639498 156.132491 
z
" clip-path="url(#pb87cb50bb9)" style="fill: #5fd6e8; opacity: 0.9"/>
   </g>
   <g id="patch_85">
    <path d="M 675.220133 156.809082 
L 681.284641 156.809082 
L 681.284641 164.840528 
L 675.220133 164.840528 
z
" clip-path="url(#pb87cb50bb9)" style="fill: #5fd6e8; opacity: 0.9"/>
   </g>
   <g id="patch_86">
    <path d="M 682.800769 156.809082 
L 688.865276 156.809082 
L 688.865276 145.318426 
L 682.800769 145.318426 
z
" clip-path="url(#pb87cb50bb9)" style="fill: #5fd6e8; opacity: 0.9"/>
   </g>
   <g id="patch_87">
    <path d="M 690.381403 156.809082 
L 696.445911 156.809082 
L 696.445911 156.296214 
L 690.381403 156.296214 
z
" clip-path="url(#pb87cb50bb9)" style="fill: #5fd6e8; opacity: 0.9"/>
   </g>
   <g id="patch_88">
    <path d="M 697.962038 156.809082 
L 704.026546 156.809082 
L 704.026546 148.736782 
L 697.962038 148.736782 
z
" clip-path="url(#pb87cb50bb9)" style="fill: #5fd6e8; opacity: 0.9"/>
   </g>
   <g id="patch_89">
    <path d="M 705.542673 156.809082 
L 711.607181 156.809082 
L 711.607181 166.276474 
L 705.542673 166.276474 
z
" clip-path="url(#pb87cb50bb9)" style="fill: #5fd6e8; opacity: 0.9"/>
   </g>
   <g id="patch_90">
    <path d="M 713.123309 156.809082 
L 719.187816 156.809082 
L 719.187816 166.825317 
L 713.123309 166.825317 
z
" clip-path="url(#pb87cb50bb9)" style="fill: #5fd6e8; opacity: 0.9"/>
   </g>
   <g id="patch_91">
    <path d="M 720.703943 156.809082 
L 726.768451 156.809082 
L 726.768451 178.655993 
L 720.703943 178.655993 
z
" clip-path="url(#pb87cb50bb9)" style="fill: #5fd6e8; opacity: 0.9"/>
   </g>
   <g id="patch_92">
    <path d="M 728.284578 156.809082 
L 734.349086 156.809082 
L 734.349086 160.914514 
L 728.284578 160.914514 
z
" clip-path="url(#pb87cb50bb9)" style="fill: #5fd6e8; opacity: 0.9"/>
   </g>
   <g id="patch_93">
    <path d="M 735.865213 156.809082 
L 741.929721 156.809082 
L 741.929721 173.877402 
L 735.865213 173.877402 
z
" clip-path="url(#pb87cb50bb9)" style="fill: #5fd6e8; opacity: 0.9"/>
   </g>
   <g id="patch_94">
    <path d="M 743.445849 156.809082 
L 749.510356 156.809082 
L 749.510356 156.064938 
L 743.445849 156.064938 
z
" clip-path="url(#pb87cb50bb9)" style="fill: #5fd6e8; opacity: 0.9"/>
   </g>
   <g id="patch_95">
    <path d="M 751.026483 156.809082 
L 757.090991 156.809082 
L 757.090991 198.131279 
L 751.026483 198.131279 
z
" clip-path="url(#pb87cb50bb9)" style="fill: #5fd6e8; opacity: 0.9"/>
   </g>
   <g id="patch_96">
    <path d="M 758.607118 156.809082 
L 764.671626 156.809082 
L 764.671626 152.176305 
L 758.607118 152.176305 
z
" clip-path="url(#pb87cb50bb9)" style="fill: #5fd6e8; opacity: 0.9"/>
   </g>
   <g id="patch_97">
    <path d="M 766.187753 156.809082 
L 772.252261 156.809082 
L 772.252261 188.608814 
L 766.187753 188.608814 
z
" clip-path="url(#pb87cb50bb9)" style="fill: #5fd6e8; opacity: 0.9"/>
   </g>
   <g id="patch_98">
    <path d="M 773.768389 156.809082 
L 779.832896 156.809082 
L 779.832896 174.871406 
L 773.768389 174.871406 
z
" clip-path="url(#pb87cb50bb9)" style="fill: #5fd6e8; opacity: 0.9"/>
   </g>
   <g id="patch_99">
    <path d="M 781.349023 156.809082 
L 787.413531 156.809082 
L 787.413531 156.092808 
L 781.349023 156.092808 
z
" clip-path="url(#pb87cb50bb9)" style="fill: #5fd6e8; opacity: 0.9"/>
   </g>
   <g id="patch_100">
    <path d="M 788.929658 156.809082 
L 794.994166 156.809082 
L 794.994166 148.628634 
L 788.929658 148.628634 
z
" clip-path="url(#pb87cb50bb9)" style="fill: #5fd6e8; opacity: 0.9"/>
   </g>
   <g id="patch_101">
    <path d="M 796.510293 156.809082 
L 802.574801 156.809082 
L 802.574801 155.912021 
L 796.510293 155.912021 
z
" clip-path="url(#pb87cb50bb9)" style="fill: #5fd6e8; opacity: 0.9"/>
   </g>
   <g id="patch_102">
    <path d="M 804.090929 156.809082 
L 810.155436 156.809082 
L 810.155436 158.299644 
L 804.090929 158.299644 
z
" clip-path="url(#pb87cb50bb9)" style="fill: #5fd6e8; opacity: 0.9"/>
   </g>
   <g id="PolyCollection_1">
    <defs>
     <path id="m1e5cb9eedb" d="M 56.640318 -193.090062 
L 56.640318 -184.592234 
L 64.220953 -189.643002 
L 71.801588 -140.075564 
L 79.382223 -164.340968 
L 86.962858 -174.362305 
L 94.543493 -184.254061 
L 102.124128 -165.535084 
L 109.704763 -167.618428 
L 117.285398 -188.2305 
L 124.866033 -163.233647 
L 132.446668 -167.47746 
L 140.027303 -168.242634 
L 147.607938 -151.398372 
L 155.188573 -183.120119 
L 162.769208 -180.620214 
L 170.349843 -165.886592 
L 177.930477 -129.237551 
L 185.511112 -94.839968 
L 193.091747 -151.996231 
L 200.672382 -100.079219 
L 208.253017 -147.522501 
L 215.833652 -197.582833 
L 223.414288 -195.52511 
L 230.994923 -103.754393 
L 238.575558 -187.340926 
L 246.156193 -187.111051 
L 253.736828 -148.947274 
L 261.317463 -176.720596 
L 268.898098 -169.711932 
L 276.478733 -168.397908 
L 284.059368 -95.309327 
L 291.640003 -133.674477 
L 299.220638 -184.657481 
L 306.801272 -86.327598 
L 314.381908 -93.953897 
L 321.962542 -105.163111 
L 329.543178 -59.545054 
L 337.123812 -129.521572 
L 344.704448 -196.567464 
L 352.285082 -109.605038 
L 359.865718 -48.84399 
L 367.446352 -82.282966 
L 375.026988 -140.649223 
L 382.607622 -181.219287 
L 390.188258 -158.417396 
L 397.768892 -122.939464 
L 405.349528 -191.142757 
L 412.930162 -179.092315 
L 420.510798 -101.196287 
L 428.091432 -154.538636 
L 435.672068 -173.056952 
L 443.252702 -119.010517 
L 450.833338 -114.893 
L 458.413972 -193.665353 
L 465.994608 -179.824683 
L 473.575243 -98.133481 
L 481.155878 -172.438193 
L 488.736513 -112.625623 
L 496.317148 -189.958449 
L 503.897783 -178.497172 
L 511.478418 -101.845266 
L 519.059053 -127.982371 
L 526.639688 -155.02132 
L 534.220323 -100.769187 
L 541.800957 -195.037324 
L 549.381593 -100.525565 
L 556.962228 -187.927648 
L 564.542862 -93.112737 
L 572.123497 -185.838749 
L 579.704133 -161.155583 
L 587.284768 -182.268604 
L 594.865402 -134.993337 
L 602.446037 -164.594676 
L 610.026673 -176.478643 
L 617.607308 -181.395799 
L 625.187942 -93.465793 
L 632.768577 -103.239416 
L 640.349213 -198.568966 
L 647.929848 -168.831806 
L 655.510482 -165.737038 
L 663.091117 -93.836073 
L 670.671753 -91.129838 
L 678.252388 -188.914894 
L 685.833022 -148.532574 
L 693.413657 -189.990595 
L 700.994293 -173.461249 
L 708.574928 -183.935632 
L 716.155562 -183.634956 
L 723.736198 -180.492293 
L 731.316833 -105.902585 
L 738.897468 -102.62202 
L 746.478102 -104.411479 
L 754.058738 -118.532395 
L 761.639373 -139.244313 
L 769.220008 -166.436183 
L 776.800642 -184.177944 
L 784.381278 -162.726003 
L 791.961913 -147.968304 
L 799.542547 -195.281935 
L 807.123182 -103.476617 
L 807.123182 -107.193864 
L 807.123182 -107.193864 
L 799.542547 -202.862175 
L 791.961913 -155.500247 
L 784.381278 -169.134436 
L 776.800642 -191.115303 
L 769.220008 -181.382248 
L 761.639373 -149.594939 
L 754.058738 -134.901567 
L 746.478102 -110.728417 
L 738.897468 -110.795738 
L 731.316833 -114.606064 
L 723.736198 -187.231787 
L 716.155562 -188.915584 
L 708.574928 -191.596083 
L 700.994293 -186.295668 
L 693.413657 -209.268625 
L 685.833022 -159.672914 
L 678.252388 -206.440116 
L 670.671753 -103.156579 
L 663.091117 -99.149312 
L 655.510482 -173.008181 
L 647.929848 -183.774969 
L 640.349213 -211.419235 
L 632.768577 -122.471434 
L 625.187942 -98.903822 
L 617.607308 -190.322898 
L 610.026673 -186.755562 
L 602.446037 -180.862856 
L 594.865402 -155.634159 
L 587.284768 -191.755316 
L 579.704133 -168.734903 
L 572.123497 -200.361435 
L 564.542862 -98.636297 
L 556.962228 -199.97273 
L 549.381593 -104.577686 
L 541.800957 -204.521457 
L 534.220323 -115.356697 
L 526.639688 -162.405253 
L 519.059053 -133.362367 
L 511.478418 -114.975786 
L 503.897783 -183.476492 
L 496.317148 -195.667572 
L 488.736513 -127.55601 
L 481.155878 -179.556728 
L 473.575243 -104.052578 
L 465.994608 -190.761388 
L 458.413972 -202.736611 
L 450.833338 -119.615543 
L 443.252702 -124.148387 
L 435.672068 -180.031013 
L 428.091432 -170.072818 
L 420.510798 -107.166455 
L 412.930162 -185.74074 
L 405.349528 -206.301482 
L 397.768892 -134.027358 
L 390.188258 -178.460127 
L 382.607622 -192.561603 
L 375.026988 -149.514719 
L 367.446352 -102.085112 
L 359.865718 -131.653602 
L 352.285082 -117.22527 
L 344.704448 -204.535518 
L 337.123812 -152.148214 
L 329.543178 -127.283844 
L 321.962542 -113.641198 
L 314.381908 -99.583777 
L 306.801272 -99.076312 
L 299.220638 -216.25398 
L 291.640003 -141.270976 
L 284.059368 -99.393336 
L 276.478733 -181.162094 
L 268.898098 -174.86987 
L 261.317463 -182.239002 
L 253.736828 -176.086712 
L 246.156193 -197.481676 
L 238.575558 -192.269894 
L 230.994923 -108.220981 
L 223.414288 -200.795506 
L 215.833652 -226.069267 
L 208.253017 -160.868092 
L 200.672382 -105.228002 
L 193.091747 -172.408433 
L 185.511112 -133.712945 
L 177.930477 -135.332764 
L 170.349843 -179.617828 
L 162.769208 -186.325701 
L 155.188573 -194.674765 
L 147.607938 -165.631089 
L 140.027303 -173.204581 
L 132.446668 -179.695483 
L 124.866033 -171.095507 
L 117.285398 -199.850069 
L 109.704763 -174.018383 
L 102.124128 -176.575101 
L 94.543493 -191.641844 
L 86.962858 -179.548982 
L 79.382223 -170.961056 
L 71.801588 -149.510178 
L 64.220953 -207.582399 
L 56.640318 -193.090062 
z
" style="stroke: #89d68c; stroke-opacity: 0.18"/>
    </defs>
    <g clip-path="url(#pb87cb50bb9)">
     <use xlink:href="#m1e5cb9eedb" x="0" y="244.8" style="fill: #89d68c; fill-opacity: 0.18; stroke: #89d68c; stroke-opacity: 0.18"/>
    </g>
   </g>
   <g id="matplotlib.axis_1">
    <g id="xtick_1">
     <g id="line2d_1">
      <defs>
       <path id="m318c5916c1" d="M 0 0 
L 0 3.5 
" style="stroke: #000000; stroke-width: 0.8"/>
      </defs>
      <g>
       <use xlink:href="#m318c5916c1" x="200.672382" y="202.84" style="stroke: #000000; stroke-width: 0.8"/>
      </g>
     </g>
     <g id="text_1">
      <!-- 20 -->
      <g transform="translate(194.309882 217.438437) scale(0.1 -0.1)">
       <defs>
        <path id="DejaVuSans-32" d="M 1228 531 
L 3431 531 
L 3431 0 
L 469 0 
L 469 531 
Q 828 903 1448 1529 
Q 2069 2156 2228 2338 
Q 2531 2678 2651 2914 
Q 2772 3150 2772 3378 
Q 2772 3750 2511 3984 
Q 2250 4219 1831 4219 
Q 1534 4219 1204 4116 
Q 875 4013 500 3803 
L 500 4441 
Q 881 4594 1212 4672 
Q 1544 4750 1819 4750 
Q 2544 4750 2975 4387 
Q 3406 4025 3406 3419 
Q 3406 3131 3298 2873 
Q 3191 2616 2906 2266 
Q 2828 2175 2409 1742 
Q 1991 1309 1228 531 
z
" transform="scale(0.015625)"/>
        <path id="DejaVuSans-30" d="M 2034 4250 
Q 1547 4250 1301 3770 
Q 1056 3291 1056 2328 
Q 1056 1369 1301 889 
Q 1547 409 2034 409 
Q 2525 409 2770 889 
Q 3016 1369 3016 2328 
Q 3016 3291 2770 3770 
Q 2525 4250 2034 4250 
z
M 2034 4750 
Q 2819 4750 3233 4129 
Q 3647 3509 3647 2328 
Q 3647 1150 3233 529 
Q 2819 -91 2034 -91 
Q 1250 -91 836 529 
Q 422 1150 422 2328 
Q 422 3509 836 4129 
Q 1250 4750 2034 4750 
z
" transform="scale(0.015625)"/>
       </defs>
       <use xlink:href="#DejaVuSans-32"/>
       <use xlink:href="#DejaVuSans-30" x="63.623047"/>
      </g>
     </g>
    </g>
    <g id="xtick_2">
     <g id="line2d_2">
      <g>
       <use xlink:href="#m318c5916c1" x="352.285082" y="202.84" style="stroke: #000000; stroke-width: 0.8"/>
      </g>
     </g>
     <g id="text_2">
      <!-- 40 -->
      <g transform="translate(345.922582 217.438437) scale(0.1 -0.1)">
       <defs>
        <path id="DejaVuSans-34" d="M 2419 4116 
L 825 1625 
L 2419 1625 
L 2419 4116 
z
M 2253 4666 
L 3047 4666 
L 3047 1625 
L 3713 1625 
L 3713 1100 
L 3047 1100 
L 3047 0 
L 2419 0 
L 2419 1100 
L 313 1100 
L 313 1709 
L 2253 4666 
z
" transform="scale(0.015625)"/>
       </defs>
       <use xlink:href="#DejaVuSans-34"/>
       <use xlink:href="#DejaVuSans-30" x="63.623047"/>
      </g>
     </g>
    </g>
    <g id="xtick_3">
     <g id="line2d_3">
      <g>
       <use xlink:href="#m318c5916c1" x="503.897783" y="202.84" style="stroke: #000000; stroke-width: 0.8"/>
      </g>
     </g>
     <g id="text_3">
      <!-- 60 -->
      <g transform="translate(497.535282 217.438437) scale(0.1 -0.1)">
       <defs>
        <path id="DejaVuSans-36" d="M 2113 2584 
Q 1688 2584 1439 2293 
Q 1191 2003 1191 1497 
Q 1191 994 1439 701 
Q 1688 409 2113 409 
Q 2538 409 2786 701 
Q 3034 994 3034 1497 
Q 3034 2003 2786 2293 
Q 2538 2584 2113 2584 
z
M 3366 4563 
L 3366 3988 
Q 3128 4100 2886 4159 
Q 2644 4219 2406 4219 
Q 1781 4219 1451 3797 
Q 1122 3375 1075 2522 
Q 1259 2794 1537 2939 
Q 1816 3084 2150 3084 
Q 2853 3084 3261 2657 
Q 3669 2231 3669 1497 
Q 3669 778 3244 343 
Q 2819 -91 2113 -91 
Q 1303 -91 875 529 
Q 447 1150 447 2328 
Q 447 3434 972 4092 
Q 1497 4750 2381 4750 
Q 2619 4750 2861 4703 
Q 3103 4656 3366 4563 
z
" transform="scale(0.015625)"/>
       </defs>
       <use xlink:href="#DejaVuSans-36"/>
       <use xlink:href="#DejaVuSans-30" x="63.623047"/>
      </g>
     </g>
    </g>
    <g id="xtick_4">
     <g id="line2d_4">
      <g>
       <use xlink:href="#m318c5916c1" x="655.510482" y="202.84" style="stroke: #000000; stroke-width: 0.8"/>
      </g>
     </g>
     <g id="text_4">
      <!-- 80 -->
      <g transform="translate(649.147983 217.438437) scale(0.1 -0.1)">
       <defs>
        <path id="DejaVuSans-38" d="M 2034 2216 
Q 1584 2216 1326 1975 
Q 1069 1734 1069 1313 
Q 1069 891 1326 650 
Q 1584 409 2034 409 
Q 2484 409 2743 651 
Q 3003 894 3003 1313 
Q 3003 1734 2745 1975 
Q 2488 2216 2034 2216 
z
M 1403 2484 
Q 997 2584 770 2862 
Q 544 3141 544 3541 
Q 544 4100 942 4425 
Q 1341 4750 2034 4750 
Q 2731 4750 3128 4425 
Q 3525 4100 3525 3541 
Q 3525 3141 3298 2862 
Q 3072 2584 2669 2484 
Q 3125 2378 3379 2068 
Q 3634 1759 3634 1313 
Q 3634 634 3220 271 
Q 2806 -91 2034 -91 
Q 1263 -91 848 271 
Q 434 634 434 1313 
Q 434 1759 690 2068 
Q 947 2378 1403 2484 
z
M 1172 3481 
Q 1172 3119 1398 2916 
Q 1625 2713 2034 2713 
Q 2441 2713 2670 2916 
Q 2900 3119 2900 3481 
Q 2900 3844 2670 4047 
Q 2441 4250 2034 4250 
Q 1625 4250 1398 4047 
Q 1172 3844 1172 3481 
z
" transform="scale(0.015625)"/>
       </defs>
       <use xlink:href="#DejaVuSans-38"/>
       <use xlink:href="#DejaVuSans-30" x="63.623047"/>
      </g>
     </g>
    </g>
    <g id="xtick_5">
     <g id="line2d_5">
      <g>
       <use xlink:href="#m318c5916c1" x="807.123182" y="202.84" style="stroke: #000000; stroke-width: 0.8"/>
      </g>
     </g>
     <g id="text_5">
      <!-- 100 -->
      <g transform="translate(797.579432 217.438437) scale(0.1 -0.1)">
       <defs>
        <path id="DejaVuSans-31" d="M 794 531 
L 1825 531 
L 1825 4091 
L 703 3866 
L 703 4441 
L 1819 4666 
L 2450 4666 
L 2450 531 
L 3481 531 
L 3481 0 
L 794 0 
L 794 531 
z
" transform="scale(0.015625)"/>
       </defs>
       <use xlink:href="#DejaVuSans-31"/>
       <use xlink:href="#DejaVuSans-30" x="63.623047"/>
       <use xlink:href="#DejaVuSans-30" x="127.246094"/>
      </g>
     </g>
    </g>
    <g id="text_6">
     <!-- Engine Id -->
     <g transform="translate(408.50675 231.116562) scale(0.1 -0.1)">
      <defs>
       <path id="DejaVuSans-45" d="M 628 4666 
L 3578 4666 
L 3578 4134 
L 1259 4134 
L 1259 2753 
L 3481 2753 
L 3481 2222 
L 1259 2222 
L 1259 531 
L 3634 531 
L 3634 0 
L 628 0 
L 628 4666 
z
" transform="scale(0.015625)"/>
       <path id="DejaVuSans-6e" d="M 3513 2113 
L 3513 0 
L 2938 0 
L 2938 2094 
Q 2938 2591 2744 2837 
Q 2550 3084 2163 3084 
Q 1697 3084 1428 2787 
Q 1159 2491 1159 1978 
L 1159 0 
L 581 0 
L 581 3500 
L 1159 3500 
L 1159 2956 
Q 1366 3272 1645 3428 
Q 1925 3584 2291 3584 
Q 2894 3584 3203 3211 
Q 3513 2838 3513 2113 
z
" transform="scale(0.015625)"/>
       <path id="DejaVuSans-67" d="M 2906 1791 
Q 2906 2416 2648 2759 
Q 2391 3103 1925 3103 
Q 1463 3103 1205 2759 
Q 947 2416 947 1791 
Q 947 1169 1205 825 
Q 1463 481 1925 481 
Q 2391 481 2648 825 
Q 2906 1169 2906 1791 
z
M 3481 434 
Q 3481 -459 3084 -895 
Q 2688 -1331 1869 -1331 
Q 1566 -1331 1297 -1286 
Q 1028 -1241 775 -1147 
L 775 -588 
Q 1028 -725 1275 -790 
Q 1522 -856 1778 -856 
Q 2344 -856 2625 -561 
Q 2906 -266 2906 331 
L 2906 616 
Q 2728 306 2450 153 
Q 2172 0 1784 0 
Q 1141 0 747 490 
Q 353 981 353 1791 
Q 353 2603 747 3093 
Q 1141 3584 1784 3584 
Q 2172 3584 2450 3431 
Q 2728 3278 2906 2969 
L 2906 3500 
L 3481 3500 
L 3481 434 
z
" transform="scale(0.015625)"/>
       <path id="DejaVuSans-69" d="M 603 3500 
L 1178 3500 
L 1178 0 
L 603 0 
L 603 3500 
z
M 603 4863 
L 1178 4863 
L 1178 4134 
L 603 4134 
L 603 4863 
z
" transform="scale(0.015625)"/>
       <path id="DejaVuSans-65" d="M 3597 1894 
L 3597 1613 
L 953 1613 
Q 991 1019 1311 708 
Q 1631 397 2203 397 
Q 2534 397 2845 478 
Q 3156 559 3463 722 
L 3463 178 
Q 3153 47 2828 -22 
Q 2503 -91 2169 -91 
Q 1331 -91 842 396 
Q 353 884 353 1716 
Q 353 2575 817 3079 
Q 1281 3584 2069 3584 
Q 2775 3584 3186 3129 
Q 3597 2675 3597 1894 
z
M 3022 2063 
Q 3016 2534 2758 2815 
Q 2500 3097 2075 3097 
Q 1594 3097 1305 2825 
Q 1016 2553 972 2059 
L 3022 2063 
z
" transform="scale(0.015625)"/>
       <path id="DejaVuSans-20" transform="scale(0.015625)"/>
       <path id="DejaVuSans-49" d="M 628 4666 
L 1259 4666 
L 1259 0 
L 628 0 
L 628 4666 
z
" transform="scale(0.015625)"/>
       <path id="DejaVuSans-64" d="M 2906 2969 
L 2906 4863 
L 3481 4863 
L 3481 0 
L 2906 0 
L 2906 525 
Q 2725 213 2448 61 
Q 2172 -91 1784 -91 
Q 1150 -91 751 415 
Q 353 922 353 1747 
Q 353 2572 751 3078 
Q 1150 3584 1784 3584 
Q 2172 3584 2448 3432 
Q 2725 3281 2906 2969 
z
M 947 1747 
Q 947 1113 1208 752 
Q 1469 391 1925 391 
Q 2381 391 2643 752 
Q 2906 1113 2906 1747 
Q 2906 2381 2643 2742 
Q 2381 3103 1925 3103 
Q 1469 3103 1208 2742 
Q 947 2381 947 1747 
z
" transform="scale(0.015625)"/>
      </defs>
      <use xlink:href="#DejaVuSans-45"/>
      <use xlink:href="#DejaVuSans-6e" x="63.183594"/>
      <use xlink:href="#DejaVuSans-67" x="126.5625"/>
      <use xlink:href="#DejaVuSans-69" x="190.039062"/>
      <use xlink:href="#DejaVuSans-6e" x="217.822266"/>
      <use xlink:href="#DejaVuSans-65" x="281.201172"/>
      <use xlink:href="#DejaVuSans-20" x="342.724609"/>
      <use xlink:href="#DejaVuSans-49" x="374.511719"/>
      <use xlink:href="#DejaVuSans-64" x="404.003906"/>
     </g>
    </g>
   </g>
   <g id="matplotlib.axis_2">
    <g id="ytick_1">
     <g id="line2d_6">
      <path d="M 52.85 180.352688 
L 810.9135 180.352688 
" clip-path="url(#pb87cb50bb9)" style="fill: none; stroke: #b0b0b0; stroke-opacity: 0.25; stroke-width: 0.8; stroke-linecap: square"/>
     </g>
     <g id="line2d_7">
      <defs>
       <path id="md940da4423" d="M 0 0 
L -3.5 0 
" style="stroke: #000000; stroke-width: 0.8"/>
      </defs>
      <g>
       <use xlink:href="#md940da4423" x="52.85" y="180.352688" style="stroke: #000000; stroke-width: 0.8"/>
      </g>
     </g>
     <g id="text_7">
      <!-- −25 -->
      <g transform="translate(24.745313 184.151907) scale(0.1 -0.1)">
       <defs>
        <path id="DejaVuSans-2212" d="M 678 2272 
L 4684 2272 
L 4684 1741 
L 678 1741 
L 678 2272 
z
" transform="scale(0.015625)"/>
        <path id="DejaVuSans-35" d="M 691 4666 
L 3169 4666 
L 3169 4134 
L 1269 4134 
L 1269 2991 
Q 1406 3038 1543 3061 
Q 1681 3084 1819 3084 
Q 2600 3084 3056 2656 
Q 3513 2228 3513 1497 
Q 3513 744 3044 326 
Q 2575 -91 1722 -91 
Q 1428 -91 1123 -41 
Q 819 9 494 109 
L 494 744 
Q 775 591 1075 516 
Q 1375 441 1709 441 
Q 2250 441 2565 725 
Q 2881 1009 2881 1497 
Q 2881 1984 2565 2268 
Q 2250 2553 1709 2553 
Q 1456 2553 1204 2497 
Q 953 2441 691 2322 
L 691 4666 
z
" transform="scale(0.015625)"/>
       </defs>
       <use xlink:href="#DejaVuSans-2212"/>
       <use xlink:href="#DejaVuSans-32" x="83.789062"/>
       <use xlink:href="#DejaVuSans-35" x="147.412109"/>
      </g>
     </g>
    </g>
    <g id="ytick_2">
     <g id="line2d_8">
      <path d="M 52.85 156.809082 
L 810.9135 156.809082 
" clip-path="url(#pb87cb50bb9)" style="fill: none; stroke: #b0b0b0; stroke-opacity: 0.25; stroke-width: 0.8; stroke-linecap: square"/>
     </g>
     <g id="line2d_9">
      <g>
       <use xlink:href="#md940da4423" x="52.85" y="156.809082" style="stroke: #000000; stroke-width: 0.8"/>
      </g>
     </g>
     <g id="text_8">
      <!-- 0 -->
      <g transform="translate(39.4875 160.608301) scale(0.1 -0.1)">
       <use xlink:href="#DejaVuSans-30"/>
      </g>
     </g>
    </g>
    <g id="ytick_3">
     <g id="line2d_10">
      <path d="M 52.85 133.265476 
L 810.9135 133.265476 
" clip-path="url(#pb87cb50bb9)" style="fill: none; stroke: #b0b0b0; stroke-opacity: 0.25; stroke-width: 0.8; stroke-linecap: square"/>
     </g>
     <g id="line2d_11">
      <g>
       <use xlink:href="#md940da4423" x="52.85" y="133.265476" style="stroke: #000000; stroke-width: 0.8"/>
      </g>
     </g>
     <g id="text_9">
      <!-- 25 -->
      <g transform="translate(33.125 137.064695) scale(0.1 -0.1)">
       <use xlink:href="#DejaVuSans-32"/>
       <use xlink:href="#DejaVuSans-35" x="63.623047"/>
      </g>
     </g>
    </g>
    <g id="ytick_4">
     <g id="line2d_12">
      <path d="M 52.85 109.72187 
L 810.9135 109.72187 
" clip-path="url(#pb87cb50bb9)" style="fill: none; stroke: #b0b0b0; stroke-opacity: 0.25; stroke-width: 0.8; stroke-linecap: square"/>
     </g>
     <g id="line2d_13">
      <g>
       <use xlink:href="#md940da4423" x="52.85" y="109.72187" style="stroke: #000000; stroke-width: 0.8"/>
      </g>
     </g>
     <g id="text_10">
      <!-- 50 -->
      <g transform="translate(33.125 113.521089) scale(0.1 -0.1)">
       <use xlink:href="#DejaVuSans-35"/>
       <use xlink:href="#DejaVuSans-30" x="63.623047"/>
      </g>
     </g>
    </g>
    <g id="ytick_5">
     <g id="line2d_14">
      <path d="M 52.85 86.178264 
L 810.9135 86.178264 
" clip-path="url(#pb87cb50bb9)" style="fill: none; stroke: #b0b0b0; stroke-opacity: 0.25; stroke-width: 0.8; stroke-linecap: square"/>
     </g>
     <g id="line2d_15">
      <g>
       <use xlink:href="#md940da4423" x="52.85" y="86.178264" style="stroke: #000000; stroke-width: 0.8"/>
      </g>
     </g>
     <g id="text_11">
      <!-- 75 -->
      <g transform="translate(33.125 89.977483) scale(0.1 -0.1)">
       <defs>
        <path id="DejaVuSans-37" d="M 525 4666 
L 3525 4666 
L 3525 4397 
L 1831 0 
L 1172 0 
L 2766 4134 
L 525 4134 
L 525 4666 
z
" transform="scale(0.015625)"/>
       </defs>
       <use xlink:href="#DejaVuSans-37"/>
       <use xlink:href="#DejaVuSans-35" x="63.623047"/>
      </g>
     </g>
    </g>
    <g id="ytick_6">
     <g id="line2d_16">
      <path d="M 52.85 62.634658 
L 810.9135 62.634658 
" clip-path="url(#pb87cb50bb9)" style="fill: none; stroke: #b0b0b0; stroke-opacity: 0.25; stroke-width: 0.8; stroke-linecap: square"/>
     </g>
     <g id="line2d_17">
      <g>
       <use xlink:href="#md940da4423" x="52.85" y="62.634658" style="stroke: #000000; stroke-width: 0.8"/>
      </g>
     </g>
     <g id="text_12">
      <!-- 100 -->
      <g transform="translate(26.7625 66.433877) scale(0.1 -0.1)">
       <use xlink:href="#DejaVuSans-31"/>
       <use xlink:href="#DejaVuSans-30" x="63.623047"/>
       <use xlink:href="#DejaVuSans-30" x="127.246094"/>
      </g>
     </g>
    </g>
    <g id="ytick_7">
     <g id="line2d_18">
      <path d="M 52.85 39.091052 
L 810.9135 39.091052 
" clip-path="url(#pb87cb50bb9)" style="fill: none; stroke: #b0b0b0; stroke-opacity: 0.25; stroke-width: 0.8; stroke-linecap: square"/>
     </g>
     <g id="line2d_19">
      <g>
       <use xlink:href="#md940da4423" x="52.85" y="39.091052" style="stroke: #000000; stroke-width: 0.8"/>
      </g>
     </g>
     <g id="text_13">
      <!-- 125 -->
      <g transform="translate(26.7625 42.890271) scale(0.1 -0.1)">
       <use xlink:href="#DejaVuSans-31"/>
       <use xlink:href="#DejaVuSans-32" x="63.623047"/>
       <use xlink:href="#DejaVuSans-35" x="127.246094"/>
      </g>
     </g>
    </g>
    <g id="text_14">
     <!-- RUL(Cycle) -->
     <g transform="translate(18.665625 141.626719) rotate(-90) scale(0.1 -0.1)">
      <defs>
       <path id="DejaVuSans-52" d="M 2841 2188 
Q 3044 2119 3236 1894 
Q 3428 1669 3622 1275 
L 4263 0 
L 3584 0 
L 2988 1197 
Q 2756 1666 2539 1819 
Q 2322 1972 1947 1972 
L 1259 1972 
L 1259 0 
L 628 0 
L 628 4666 
L 2053 4666 
Q 2853 4666 3247 4331 
Q 3641 3997 3641 3322 
Q 3641 2881 3436 2590 
Q 3231 2300 2841 2188 
z
M 1259 4147 
L 1259 2491 
L 2053 2491 
Q 2509 2491 2742 2702 
Q 2975 2913 2975 3322 
Q 2975 3731 2742 3939 
Q 2509 4147 2053 4147 
L 1259 4147 
z
" transform="scale(0.015625)"/>
       <path id="DejaVuSans-55" d="M 556 4666 
L 1191 4666 
L 1191 1831 
Q 1191 1081 1462 751 
Q 1734 422 2344 422 
Q 2950 422 3222 751 
Q 3494 1081 3494 1831 
L 3494 4666 
L 4128 4666 
L 4128 1753 
Q 4128 841 3676 375 
Q 3225 -91 2344 -91 
Q 1459 -91 1007 375 
Q 556 841 556 1753 
L 556 4666 
z
" transform="scale(0.015625)"/>
       <path id="DejaVuSans-4c" d="M 628 4666 
L 1259 4666 
L 1259 531 
L 3531 531 
L 3531 0 
L 628 0 
L 628 4666 
z
" transform="scale(0.015625)"/>
       <path id="DejaVuSans-28" d="M 1984 4856 
Q 1566 4138 1362 3434 
Q 1159 2731 1159 2009 
Q 1159 1288 1364 580 
Q 1569 -128 1984 -844 
L 1484 -844 
Q 1016 -109 783 600 
Q 550 1309 550 2009 
Q 550 2706 781 3412 
Q 1013 4119 1484 4856 
L 1984 4856 
z
" transform="scale(0.015625)"/>
       <path id="DejaVuSans-43" d="M 4122 4306 
L 4122 3641 
Q 3803 3938 3442 4084 
Q 3081 4231 2675 4231 
Q 1875 4231 1450 3742 
Q 1025 3253 1025 2328 
Q 1025 1406 1450 917 
Q 1875 428 2675 428 
Q 3081 428 3442 575 
Q 3803 722 4122 1019 
L 4122 359 
Q 3791 134 3420 21 
Q 3050 -91 2638 -91 
Q 1578 -91 968 557 
Q 359 1206 359 2328 
Q 359 3453 968 4101 
Q 1578 4750 2638 4750 
Q 3056 4750 3426 4639 
Q 3797 4528 4122 4306 
z
" transform="scale(0.015625)"/>
       <path id="DejaVuSans-79" d="M 2059 -325 
Q 1816 -950 1584 -1140 
Q 1353 -1331 966 -1331 
L 506 -1331 
L 506 -850 
L 844 -850 
Q 1081 -850 1212 -737 
Q 1344 -625 1503 -206 
L 1606 56 
L 191 3500 
L 800 3500 
L 1894 763 
L 2988 3500 
L 3597 3500 
L 2059 -325 
z
" transform="scale(0.015625)"/>
       <path id="DejaVuSans-63" d="M 3122 3366 
L 3122 2828 
Q 2878 2963 2633 3030 
Q 2388 3097 2138 3097 
Q 1578 3097 1268 2742 
Q 959 2388 959 1747 
Q 959 1106 1268 751 
Q 1578 397 2138 397 
Q 2388 397 2633 464 
Q 2878 531 3122 666 
L 3122 134 
Q 2881 22 2623 -34 
Q 2366 -91 2075 -91 
Q 1284 -91 818 406 
Q 353 903 353 1747 
Q 353 2603 823 3093 
Q 1294 3584 2113 3584 
Q 2378 3584 2631 3529 
Q 2884 3475 3122 3366 
z
" transform="scale(0.015625)"/>
       <path id="DejaVuSans-6c" d="M 603 4863 
L 1178 4863 
L 1178 0 
L 603 0 
L 603 4863 
z
" transform="scale(0.015625)"/>
       <path id="DejaVuSans-29" d="M 513 4856 
L 1013 4856 
Q 1481 4119 1714 3412 
Q 1947 2706 1947 2009 
Q 1947 1309 1714 600 
Q 1481 -109 1013 -844 
L 513 -844 
Q 928 -128 1133 580 
Q 1338 1288 1338 2009 
Q 1338 2731 1133 3434 
Q 928 4138 513 4856 
z
" transform="scale(0.015625)"/>
      </defs>
      <use xlink:href="#DejaVuSans-52"/>
      <use xlink:href="#DejaVuSans-55" x="69.482422"/>
      <use xlink:href="#DejaVuSans-4c" x="142.675781"/>
      <use xlink:href="#DejaVuSans-28" x="198.388672"/>
      <use xlink:href="#DejaVuSans-43" x="237.402344"/>
      <use xlink:href="#DejaVuSans-79" x="307.226562"/>
      <use xlink:href="#DejaVuSans-63" x="366.40625"/>
      <use xlink:href="#DejaVuSans-6c" x="421.386719"/>
      <use xlink:href="#DejaVuSans-65" x="449.169922"/>
      <use xlink:href="#DejaVuSans-29" x="510.693359"/>
     </g>
    </g>
   </g>
   <g id="line2d_20">
    <path d="M 56.640318 51.333727 
L 64.220953 64.518147 
L 71.801588 91.82873 
L 79.382223 79.586054 
L 86.962858 71.110356 
L 94.543493 69.226868 
L 102.124128 71.110356 
L 109.704763 67.343379 
L 117.285398 52.275472 
L 124.866033 66.401635 
L 132.446668 65.459891 
L 140.027303 40.032797 
L 147.607938 67.343379 
L 155.188573 56.042449 
L 162.769208 78.64431 
L 170.349843 77.702566 
L 177.930477 109.72187 
L 185.511112 130.440243 
L 193.091747 74.877333 
L 200.672382 141.741174 
L 208.253017 103.12966 
L 215.833652 52.275472 
L 223.414288 50.391983 
L 230.994923 137.974197 
L 238.575558 39.091052 
L 246.156193 44.741518 
L 253.736828 94.653962 
L 261.317463 65.459891 
L 268.898098 72.052101 
L 276.478733 48.508495 
L 284.059368 149.275128 
L 291.640003 111.605359 
L 299.220638 56.984193 
L 306.801272 150.216872 
L 314.381908 146.449895 
L 321.962542 138.915941 
L 329.543178 137.032453 
L 337.123812 109.72187 
L 344.704448 39.091052 
L 352.285082 130.440243 
L 359.865718 139.857686 
L 367.446352 147.39164 
L 375.026988 101.246172 
L 382.607622 54.15896 
L 390.188258 49.450239 
L 397.768892 112.547103 
L 405.349528 39.091052 
L 412.930162 70.168612 
L 420.510798 137.032453 
L 428.091432 82.411287 
L 435.672068 49.450239 
L 443.252702 129.498499 
L 450.833338 132.323732 
L 458.413972 65.459891 
L 465.994608 39.091052 
L 473.575243 142.682918 
L 481.155878 59.809426 
L 488.736513 121.964545 
L 496.317148 49.450239 
L 503.897783 62.634658 
L 511.478418 137.032453 
L 519.059053 105.954893 
L 526.639688 89.003497 
L 534.220323 130.440243 
L 541.800957 39.091052 
L 549.381593 143.624663 
L 556.962228 84.294776 
L 564.542862 149.275128 
L 572.123497 42.858029 
L 579.704133 68.285124 
L 587.284768 45.683262 
L 594.865402 109.72187 
L 602.446037 39.091052 
L 610.026673 39.091052 
L 617.607308 50.391983 
L 625.187942 147.39164 
L 632.768577 124.789778 
L 640.349213 56.042449 
L 647.929848 97.479195 
L 655.510482 72.052101 
L 663.091117 149.275128 
L 670.671753 148.333384 
L 678.252388 39.091052 
L 685.833022 102.187916 
L 693.413657 45.683262 
L 700.994293 72.993845 
L 708.574928 47.56675 
L 716.155562 48.508495 
L 723.736198 39.091052 
L 731.316833 130.440243 
L 738.897468 121.022801 
L 746.478102 137.974197 
L 754.058738 76.760822 
L 761.639373 105.013149 
L 769.220008 39.091052 
L 776.800642 39.091052 
L 784.381278 79.586054 
L 791.961913 101.246172 
L 799.542547 46.625006 
L 807.123182 137.974197 
" clip-path="url(#pb87cb50bb9)" style="fill: none; stroke-dasharray: 3.7,1.6; stroke-dashoffset: 0; stroke: #dc8a8a"/>
    <defs>
     <path id="m8c3f326e6e" d="M -2 2 
L 2 2 
L 2 -2 
L -2 -2 
z
" style="stroke: #dc8a8a; stroke-linejoin: miter"/>
    </defs>
    <g clip-path="url(#pb87cb50bb9)">
     <use xlink:href="#m8c3f326e6e" x="56.640318" y="51.333727" style="fill-opacity: 0; stroke: #dc8a8a; stroke-linejoin: miter"/>
     <use xlink:href="#m8c3f326e6e" x="64.220953" y="64.518147" style="fill-opacity: 0; stroke: #dc8a8a; stroke-linejoin: miter"/>
     <use xlink:href="#m8c3f326e6e" x="71.801588" y="91.82873" style="fill-opacity: 0; stroke: #dc8a8a; stroke-linejoin: miter"/>
     <use xlink:href="#m8c3f326e6e" x="79.382223" y="79.586054" style="fill-opacity: 0; stroke: #dc8a8a; stroke-linejoin: miter"/>
     <use xlink:href="#m8c3f326e6e" x="86.962858" y="71.110356" style="fill-opacity: 0; stroke: #dc8a8a; stroke-linejoin: miter"/>
     <use xlink:href="#m8c3f326e6e" x="94.543493" y="69.226868" style="fill-opacity: 0; stroke: #dc8a8a; stroke-linejoin: miter"/>
     <use xlink:href="#m8c3f326e6e" x="102.124128" y="71.110356" style="fill-opacity: 0; stroke: #dc8a8a; stroke-linejoin: miter"/>
     <use xlink:href="#m8c3f326e6e" x="109.704763" y="67.343379" style="fill-opacity: 0; stroke: #dc8a8a; stroke-linejoin: miter"/>
     <use xlink:href="#m8c3f326e6e" x="117.285398" y="52.275472" style="fill-opacity: 0; stroke: #dc8a8a; stroke-linejoin: miter"/>
     <use xlink:href="#m8c3f326e6e" x="124.866033" y="66.401635" style="fill-opacity: 0; stroke: #dc8a8a; stroke-linejoin: miter"/>
     <use xlink:href="#m8c3f326e6e" x="132.446668" y="65.459891" style="fill-opacity: 0; stroke: #dc8a8a; stroke-linejoin: miter"/>
     <use xlink:href="#m8c3f326e6e" x="140.027303" y="40.032797" style="fill-opacity: 0; stroke: #dc8a8a; stroke-linejoin: miter"/>
     <use xlink:href="#m8c3f326e6e" x="147.607938" y="67.343379" style="fill-opacity: 0; stroke: #dc8a8a; stroke-linejoin: miter"/>
     <use xlink:href="#m8c3f326e6e" x="155.188573" y="56.042449" style="fill-opacity: 0; stroke: #dc8a8a; stroke-linejoin: miter"/>
     <use xlink:href="#m8c3f326e6e" x="162.769208" y="78.64431" style="fill-opacity: 0; stroke: #dc8a8a; stroke-linejoin: miter"/>
     <use xlink:href="#m8c3f326e6e" x="170.349843" y="77.702566" style="fill-opacity: 0; stroke: #dc8a8a; stroke-linejoin: miter"/>
     <use xlink:href="#m8c3f326e6e" x="177.930477" y="109.72187" style="fill-opacity: 0; stroke: #dc8a8a; stroke-linejoin: miter"/>
     <use xlink:href="#m8c3f326e6e" x="185.511112" y="130.440243" style="fill-opacity: 0; stroke: #dc8a8a; stroke-linejoin: miter"/>
     <use xlink:href="#m8c3f326e6e" x="193.091747" y="74.877333" style="fill-opacity: 0; stroke: #dc8a8a; stroke-linejoin: miter"/>
     <use xlink:href="#m8c3f326e6e" x="200.672382" y="141.741174" style="fill-opacity: 0; stroke: #dc8a8a; stroke-linejoin: miter"/>
     <use xlink:href="#m8c3f326e6e" x="208.253017" y="103.12966" style="fill-opacity: 0; stroke: #dc8a8a; stroke-linejoin: miter"/>
     <use xlink:href="#m8c3f326e6e" x="215.833652" y="52.275472" style="fill-opacity: 0; stroke: #dc8a8a; stroke-linejoin: miter"/>
     <use xlink:href="#m8c3f326e6e" x="223.414288" y="50.391983" style="fill-opacity: 0; stroke: #dc8a8a; stroke-linejoin: miter"/>
     <use xlink:href="#m8c3f326e6e" x="230.994923" y="137.974197" style="fill-opacity: 0; stroke: #dc8a8a; stroke-linejoin: miter"/>
     <use xlink:href="#m8c3f326e6e" x="238.575558" y="39.091052" style="fill-opacity: 0; stroke: #dc8a8a; stroke-linejoin: miter"/>
     <use xlink:href="#m8c3f326e6e" x="246.156193" y="44.741518" style="fill-opacity: 0; stroke: #dc8a8a; stroke-linejoin: miter"/>
     <use xlink:href="#m8c3f326e6e" x="253.736828" y="94.653962" style="fill-opacity: 0; stroke: #dc8a8a; stroke-linejoin: miter"/>
     <use xlink:href="#m8c3f326e6e" x="261.317463" y="65.459891" style="fill-opacity: 0; stroke: #dc8a8a; stroke-linejoin: miter"/>
     <use xlink:href="#m8c3f326e6e" x="268.898098" y="72.052101" style="fill-opacity: 0; stroke: #dc8a8a; stroke-linejoin: miter"/>
     <use xlink:href="#m8c3f326e6e" x="276.478733" y="48.508495" style="fill-opacity: 0; stroke: #dc8a8a; stroke-linejoin: miter"/>
     <use xlink:href="#m8c3f326e6e" x="284.059368" y="149.275128" style="fill-opacity: 0; stroke: #dc8a8a; stroke-linejoin: miter"/>
     <use xlink:href="#m8c3f326e6e" x="291.640003" y="111.605359" style="fill-opacity: 0; stroke: #dc8a8a; stroke-linejoin: miter"/>
     <use xlink:href="#m8c3f326e6e" x="299.220638" y="56.984193" style="fill-opacity: 0; stroke: #dc8a8a; stroke-linejoin: miter"/>
     <use xlink:href="#m8c3f326e6e" x="306.801272" y="150.216872" style="fill-opacity: 0; stroke: #dc8a8a; stroke-linejoin: miter"/>
     <use xlink:href="#m8c3f326e6e" x="314.381908" y="146.449895" style="fill-opacity: 0; stroke: #dc8a8a; stroke-linejoin: miter"/>
     <use xlink:href="#m8c3f326e6e" x="321.962542" y="138.915941" style="fill-opacity: 0; stroke: #dc8a8a; stroke-linejoin: miter"/>
     <use xlink:href="#m8c3f326e6e" x="329.543178" y="137.032453" style="fill-opacity: 0; stroke: #dc8a8a; stroke-linejoin: miter"/>
     <use xlink:href="#m8c3f326e6e" x="337.123812" y="109.72187" style="fill-opacity: 0; stroke: #dc8a8a; stroke-linejoin: miter"/>
     <use xlink:href="#m8c3f326e6e" x="344.704448" y="39.091052" style="fill-opacity: 0; stroke: #dc8a8a; stroke-linejoin: miter"/>
     <use xlink:href="#m8c3f326e6e" x="352.285082" y="130.440243" style="fill-opacity: 0; stroke: #dc8a8a; stroke-linejoin: miter"/>
     <use xlink:href="#m8c3f326e6e" x="359.865718" y="139.857686" style="fill-opacity: 0; stroke: #dc8a8a; stroke-linejoin: miter"/>
     <use xlink:href="#m8c3f326e6e" x="367.446352" y="147.39164" style="fill-opacity: 0; stroke: #dc8a8a; stroke-linejoin: miter"/>
     <use xlink:href="#m8c3f326e6e" x="375.026988" y="101.246172" style="fill-opacity: 0; stroke: #dc8a8a; stroke-linejoin: miter"/>
     <use xlink:href="#m8c3f326e6e" x="382.607622" y="54.15896" style="fill-opacity: 0; stroke: #dc8a8a; stroke-linejoin: miter"/>
     <use xlink:href="#m8c3f326e6e" x="390.188258" y="49.450239" style="fill-opacity: 0; stroke: #dc8a8a; stroke-linejoin: miter"/>
     <use xlink:href="#m8c3f326e6e" x="397.768892" y="112.547103" style="fill-opacity: 0; stroke: #dc8a8a; stroke-linejoin: miter"/>
     <use xlink:href="#m8c3f326e6e" x="405.349528" y="39.091052" style="fill-opacity: 0; stroke: #dc8a8a; stroke-linejoin: miter"/>
     <use xlink:href="#m8c3f326e6e" x="412.930162" y="70.168612" style="fill-opacity: 0; stroke: #dc8a8a; stroke-linejoin: miter"/>
     <use xlink:href="#m8c3f326e6e" x="420.510798" y="137.032453" style="fill-opacity: 0; stroke: #dc8a8a; stroke-linejoin: miter"/>
     <use xlink:href="#m8c3f326e6e" x="428.091432" y="82.411287" style="fill-opacity: 0; stroke: #dc8a8a; stroke-linejoin: miter"/>
     <use xlink:href="#m8c3f326e6e" x="435.672068" y="49.450239" style="fill-opacity: 0; stroke: #dc8a8a; stroke-linejoin: miter"/>
     <use xlink:href="#m8c3f326e6e" x="443.252702" y="129.498499" style="fill-opacity: 0; stroke: #dc8a8a; stroke-linejoin: miter"/>
     <use xlink:href="#m8c3f326e6e" x="450.833338" y="132.323732" style="fill-opacity: 0; stroke: #dc8a8a; stroke-linejoin: miter"/>
     <use xlink:href="#m8c3f326e6e" x="458.413972" y="65.459891" style="fill-opacity: 0; stroke: #dc8a8a; stroke-linejoin: miter"/>
     <use xlink:href="#m8c3f326e6e" x="465.994608" y="39.091052" style="fill-opacity: 0; stroke: #dc8a8a; stroke-linejoin: miter"/>
     <use xlink:href="#m8c3f326e6e" x="473.575243" y="142.682918" style="fill-opacity: 0; stroke: #dc8a8a; stroke-linejoin: miter"/>
     <use xlink:href="#m8c3f326e6e" x="481.155878" y="59.809426" style="fill-opacity: 0; stroke: #dc8a8a; stroke-linejoin: miter"/>
     <use xlink:href="#m8c3f326e6e" x="488.736513" y="121.964545" style="fill-opacity: 0; stroke: #dc8a8a; stroke-linejoin: miter"/>
     <use xlink:href="#m8c3f326e6e" x="496.317148" y="49.450239" style="fill-opacity: 0; stroke: #dc8a8a; stroke-linejoin: miter"/>
     <use xlink:href="#m8c3f326e6e" x="503.897783" y="62.634658" style="fill-opacity: 0; stroke: #dc8a8a; stroke-linejoin: miter"/>
     <use xlink:href="#m8c3f326e6e" x="511.478418" y="137.032453" style="fill-opacity: 0; stroke: #dc8a8a; stroke-linejoin: miter"/>
     <use xlink:href="#m8c3f326e6e" x="519.059053" y="105.954893" style="fill-opacity: 0; stroke: #dc8a8a; stroke-linejoin: miter"/>
     <use xlink:href="#m8c3f326e6e" x="526.639688" y="89.003497" style="fill-opacity: 0; stroke: #dc8a8a; stroke-linejoin: miter"/>
     <use xlink:href="#m8c3f326e6e" x="534.220323" y="130.440243" style="fill-opacity: 0; stroke: #dc8a8a; stroke-linejoin: miter"/>
     <use xlink:href="#m8c3f326e6e" x="541.800957" y="39.091052" style="fill-opacity: 0; stroke: #dc8a8a; stroke-linejoin: miter"/>
     <use xlink:href="#m8c3f326e6e" x="549.381593" y="143.624663" style="fill-opacity: 0; stroke: #dc8a8a; stroke-linejoin: miter"/>
     <use xlink:href="#m8c3f326e6e" x="556.962228" y="84.294776" style="fill-opacity: 0; stroke: #dc8a8a; stroke-linejoin: miter"/>
     <use xlink:href="#m8c3f326e6e" x="564.542862" y="149.275128" style="fill-opacity: 0; stroke: #dc8a8a; stroke-linejoin: miter"/>
     <use xlink:href="#m8c3f326e6e" x="572.123497" y="42.858029" style="fill-opacity: 0; stroke: #dc8a8a; stroke-linejoin: miter"/>
     <use xlink:href="#m8c3f326e6e" x="579.704133" y="68.285124" style="fill-opacity: 0; stroke: #dc8a8a; stroke-linejoin: miter"/>
     <use xlink:href="#m8c3f326e6e" x="587.284768" y="45.683262" style="fill-opacity: 0; stroke: #dc8a8a; stroke-linejoin: miter"/>
     <use xlink:href="#m8c3f326e6e" x="594.865402" y="109.72187" style="fill-opacity: 0; stroke: #dc8a8a; stroke-linejoin: miter"/>
     <use xlink:href="#m8c3f326e6e" x="602.446037" y="39.091052" style="fill-opacity: 0; stroke: #dc8a8a; stroke-linejoin: miter"/>
     <use xlink:href="#m8c3f326e6e" x="610.026673" y="39.091052" style="fill-opacity: 0; stroke: #dc8a8a; stroke-linejoin: miter"/>
     <use xlink:href="#m8c3f326e6e" x="617.607308" y="50.391983" style="fill-opacity: 0; stroke: #dc8a8a; stroke-linejoin: miter"/>
     <use xlink:href="#m8c3f326e6e" x="625.187942" y="147.39164" style="fill-opacity: 0; stroke: #dc8a8a; stroke-linejoin: miter"/>
     <use xlink:href="#m8c3f326e6e" x="632.768577" y="124.789778" style="fill-opacity: 0; stroke: #dc8a8a; stroke-linejoin: miter"/>
     <use xlink:href="#m8c3f326e6e" x="640.349213" y="56.042449" style="fill-opacity: 0; stroke: #dc8a8a; stroke-linejoin: miter"/>
     <use xlink:href="#m8c3f326e6e" x="647.929848" y="97.479195" style="fill-opacity: 0; stroke: #dc8a8a; stroke-linejoin: miter"/>
     <use xlink:href="#m8c3f326e6e" x="655.510482" y="72.052101" style="fill-opacity: 0; stroke: #dc8a8a; stroke-linejoin: miter"/>
     <use xlink:href="#m8c3f326e6e" x="663.091117" y="149.275128" style="fill-opacity: 0; stroke: #dc8a8a; stroke-linejoin: miter"/>
     <use xlink:href="#m8c3f326e6e" x="670.671753" y="148.333384" style="fill-opacity: 0; stroke: #dc8a8a; stroke-linejoin: miter"/>
     <use xlink:href="#m8c3f326e6e" x="678.252388" y="39.091052" style="fill-opacity: 0; stroke: #dc8a8a; stroke-linejoin: miter"/>
     <use xlink:href="#m8c3f326e6e" x="685.833022" y="102.187916" style="fill-opacity: 0; stroke: #dc8a8a; stroke-linejoin: miter"/>
     <use xlink:href="#m8c3f326e6e" x="693.413657" y="45.683262" style="fill-opacity: 0; stroke: #dc8a8a; stroke-linejoin: miter"/>
     <use xlink:href="#m8c3f326e6e" x="700.994293" y="72.993845" style="fill-opacity: 0; stroke: #dc8a8a; stroke-linejoin: miter"/>
     <use xlink:href="#m8c3f326e6e" x="708.574928" y="47.56675" style="fill-opacity: 0; stroke: #dc8a8a; stroke-linejoin: miter"/>
     <use xlink:href="#m8c3f326e6e" x="716.155562" y="48.508495" style="fill-opacity: 0; stroke: #dc8a8a; stroke-linejoin: miter"/>
     <use xlink:href="#m8c3f326e6e" x="723.736198" y="39.091052" style="fill-opacity: 0; stroke: #dc8a8a; stroke-linejoin: miter"/>
     <use xlink:href="#m8c3f326e6e" x="731.316833" y="130.440243" style="fill-opacity: 0; stroke: #dc8a8a; stroke-linejoin: miter"/>
     <use xlink:href="#m8c3f326e6e" x="738.897468" y="121.022801" style="fill-opacity: 0; stroke: #dc8a8a; stroke-linejoin: miter"/>
     <use xlink:href="#m8c3f326e6e" x="746.478102" y="137.974197" style="fill-opacity: 0; stroke: #dc8a8a; stroke-linejoin: miter"/>
     <use xlink:href="#m8c3f326e6e" x="754.058738" y="76.760822" style="fill-opacity: 0; stroke: #dc8a8a; stroke-linejoin: miter"/>
     <use xlink:href="#m8c3f326e6e" x="761.639373" y="105.013149" style="fill-opacity: 0; stroke: #dc8a8a; stroke-linejoin: miter"/>
     <use xlink:href="#m8c3f326e6e" x="769.220008" y="39.091052" style="fill-opacity: 0; stroke: #dc8a8a; stroke-linejoin: miter"/>
     <use xlink:href="#m8c3f326e6e" x="776.800642" y="39.091052" style="fill-opacity: 0; stroke: #dc8a8a; stroke-linejoin: miter"/>
     <use xlink:href="#m8c3f326e6e" x="784.381278" y="79.586054" style="fill-opacity: 0; stroke: #dc8a8a; stroke-linejoin: miter"/>
     <use xlink:href="#m8c3f326e6e" x="791.961913" y="101.246172" style="fill-opacity: 0; stroke: #dc8a8a; stroke-linejoin: miter"/>
     <use xlink:href="#m8c3f326e6e" x="799.542547" y="46.625006" style="fill-opacity: 0; stroke: #dc8a8a; stroke-linejoin: miter"/>
     <use xlink:href="#m8c3f326e6e" x="807.123182" y="137.974197" style="fill-opacity: 0; stroke: #dc8a8a; stroke-linejoin: miter"/>
    </g>
   </g>
   <g id="line2d_21">
    <path d="M 56.640318 55.958852 
L 64.220953 46.1873 
L 71.801588 100.007129 
L 79.382223 77.148988 
L 86.962858 67.844356 
L 94.543493 56.852047 
L 102.124128 73.744908 
L 109.704763 73.981594 
L 117.285398 50.759715 
L 124.866033 77.635423 
L 132.446668 71.213532 
L 140.027303 74.076392 
L 147.607938 86.285269 
L 155.188573 55.902558 
L 162.769208 61.327043 
L 170.349843 72.04779 
L 177.930477 112.514842 
L 185.511112 130.523545 
L 193.091747 82.597672 
L 200.672382 142.14639 
L 208.253017 90.604703 
L 215.833652 32.973954 
L 223.414288 46.639692 
L 230.994923 138.812313 
L 238.575558 54.99459 
L 246.156193 52.503637 
L 253.736828 82.283007 
L 261.317463 65.320201 
L 268.898098 72.509099 
L 276.478733 70.019999 
L 284.059368 147.448669 
L 291.640003 107.327274 
L 299.220638 44.34427 
L 306.801272 152.098045 
L 314.381908 148.031164 
L 321.962542 135.397845 
L 329.543178 151.385556 
L 337.123812 103.965107 
L 344.704448 44.248509 
L 352.285082 131.384847 
L 359.865718 154.551208 
L 367.446352 152.615962 
L 375.026988 99.718029 
L 382.607622 57.909555 
L 390.188258 76.361239 
L 397.768892 116.316591 
L 405.349528 46.07788 
L 412.930162 62.383473 
L 420.510798 140.61863 
L 428.091432 82.494273 
L 435.672068 68.256017 
L 443.252702 123.220548 
L 450.833338 127.54573 
L 458.413972 46.599018 
L 465.994608 59.506968 
L 473.575243 143.706971 
L 481.155878 68.80254 
L 488.736513 124.709184 
L 496.317148 51.986989 
L 503.897783 63.813168 
L 511.478418 136.389475 
L 519.059053 114.127631 
L 526.639688 86.086714 
L 534.220323 136.737059 
L 541.800957 45.020609 
L 549.381593 142.248375 
L 556.962228 50.849815 
L 564.542862 148.925483 
L 572.123497 51.699908 
L 579.704133 79.854757 
L 587.284768 57.788044 
L 594.865402 99.486254 
L 602.446037 72.071234 
L 610.026673 63.182898 
L 617.607308 58.940652 
L 625.187942 148.615193 
L 632.768577 131.944577 
L 640.349213 39.805903 
L 647.929848 68.496612 
L 655.510482 75.427391 
L 663.091117 148.307308 
L 670.671753 147.656792 
L 678.252388 47.122499 
L 685.833022 90.69726 
L 693.413657 45.170394 
L 700.994293 64.921545 
L 708.574928 57.034143 
L 716.155562 58.52473 
L 723.736198 60.937964 
L 731.316833 134.545676 
L 738.897468 138.091121 
L 746.478102 137.230053 
L 754.058738 118.083019 
L 761.639373 100.380372 
L 769.220008 70.890785 
L 776.800642 57.153377 
L 784.381278 78.869781 
L 791.961913 93.065724 
L 799.542547 45.727945 
L 807.123182 139.464759 
" clip-path="url(#pb87cb50bb9)" style="fill: none; stroke-dasharray: 3.7,1.6; stroke-dashoffset: 0; stroke: #89d68c"/>
    <defs>
     <path id="md005e8b368" d="M 0 -2 
L -2 2 
L 2 2 
z
" style="stroke: #89d68c; stroke-linejoin: miter"/>
    </defs>
    <g clip-path="url(#pb87cb50bb9)">
     <use xlink:href="#md005e8b368" x="56.640318" y="55.958852" style="fill-opacity: 0; stroke: #89d68c; stroke-linejoin: miter"/>
     <use xlink:href="#md005e8b368" x="64.220953" y="46.1873" style="fill-opacity: 0; stroke: #89d68c; stroke-linejoin: miter"/>
     <use xlink:href="#md005e8b368" x="71.801588" y="100.007129" style="fill-opacity: 0; stroke: #89d68c; stroke-linejoin: miter"/>
     <use xlink:href="#md005e8b368" x="79.382223" y="77.148988" style="fill-opacity: 0; stroke: #89d68c; stroke-linejoin: miter"/>
     <use xlink:href="#md005e8b368" x="86.962858" y="67.844356" style="fill-opacity: 0; stroke: #89d68c; stroke-linejoin: miter"/>
     <use xlink:href="#md005e8b368" x="94.543493" y="56.852047" style="fill-opacity: 0; stroke: #89d68c; stroke-linejoin: miter"/>
     <use xlink:href="#md005e8b368" x="102.124128" y="73.744908" style="fill-opacity: 0; stroke: #89d68c; stroke-linejoin: miter"/>
     <use xlink:href="#md005e8b368" x="109.704763" y="73.981594" style="fill-opacity: 0; stroke: #89d68c; stroke-linejoin: miter"/>
     <use xlink:href="#md005e8b368" x="117.285398" y="50.759715" style="fill-opacity: 0; stroke: #89d68c; stroke-linejoin: miter"/>
     <use xlink:href="#md005e8b368" x="124.866033" y="77.635423" style="fill-opacity: 0; stroke: #89d68c; stroke-linejoin: miter"/>
     <use xlink:href="#md005e8b368" x="132.446668" y="71.213532" style="fill-opacity: 0; stroke: #89d68c; stroke-linejoin: miter"/>
     <use xlink:href="#md005e8b368" x="140.027303" y="74.076392" style="fill-opacity: 0; stroke: #89d68c; stroke-linejoin: miter"/>
     <use xlink:href="#md005e8b368" x="147.607938" y="86.285269" style="fill-opacity: 0; stroke: #89d68c; stroke-linejoin: miter"/>
     <use xlink:href="#md005e8b368" x="155.188573" y="55.902558" style="fill-opacity: 0; stroke: #89d68c; stroke-linejoin: miter"/>
     <use xlink:href="#md005e8b368" x="162.769208" y="61.327043" style="fill-opacity: 0; stroke: #89d68c; stroke-linejoin: miter"/>
     <use xlink:href="#md005e8b368" x="170.349843" y="72.04779" style="fill-opacity: 0; stroke: #89d68c; stroke-linejoin: miter"/>
     <use xlink:href="#md005e8b368" x="177.930477" y="112.514842" style="fill-opacity: 0; stroke: #89d68c; stroke-linejoin: miter"/>
     <use xlink:href="#md005e8b368" x="185.511112" y="130.523545" style="fill-opacity: 0; stroke: #89d68c; stroke-linejoin: miter"/>
     <use xlink:href="#md005e8b368" x="193.091747" y="82.597672" style="fill-opacity: 0; stroke: #89d68c; stroke-linejoin: miter"/>
     <use xlink:href="#md005e8b368" x="200.672382" y="142.14639" style="fill-opacity: 0; stroke: #89d68c; stroke-linejoin: miter"/>
     <use xlink:href="#md005e8b368" x="208.253017" y="90.604703" style="fill-opacity: 0; stroke: #89d68c; stroke-linejoin: miter"/>
     <use xlink:href="#md005e8b368" x="215.833652" y="32.973954" style="fill-opacity: 0; stroke: #89d68c; stroke-linejoin: miter"/>
     <use xlink:href="#md005e8b368" x="223.414288" y="46.639692" style="fill-opacity: 0; stroke: #89d68c; stroke-linejoin: miter"/>
     <use xlink:href="#md005e8b368" x="230.994923" y="138.812313" style="fill-opacity: 0; stroke: #89d68c; stroke-linejoin: miter"/>
     <use xlink:href="#md005e8b368" x="238.575558" y="54.99459" style="fill-opacity: 0; stroke: #89d68c; stroke-linejoin: miter"/>
     <use xlink:href="#md005e8b368" x="246.156193" y="52.503637" style="fill-opacity: 0; stroke: #89d68c; stroke-linejoin: miter"/>
     <use xlink:href="#md005e8b368" x="253.736828" y="82.283007" style="fill-opacity: 0; stroke: #89d68c; stroke-linejoin: miter"/>
     <use xlink:href="#md005e8b368" x="261.317463" y="65.320201" style="fill-opacity: 0; stroke: #89d68c; stroke-linejoin: miter"/>
     <use xlink:href="#md005e8b368" x="268.898098" y="72.509099" style="fill-opacity: 0; stroke: #89d68c; stroke-linejoin: miter"/>
     <use xlink:href="#md005e8b368" x="276.478733" y="70.019999" style="fill-opacity: 0; stroke: #89d68c; stroke-linejoin: miter"/>
     <use xlink:href="#md005e8b368" x="284.059368" y="147.448669" style="fill-opacity: 0; stroke: #89d68c; stroke-linejoin: miter"/>
     <use xlink:href="#md005e8b368" x="291.640003" y="107.327274" style="fill-opacity: 0; stroke: #89d68c; stroke-linejoin: miter"/>
     <use xlink:href="#md005e8b368" x="299.220638" y="44.34427" style="fill-opacity: 0; stroke: #89d68c; stroke-linejoin: miter"/>
     <use xlink:href="#md005e8b368" x="306.801272" y="152.098045" style="fill-opacity: 0; stroke: #89d68c; stroke-linejoin: miter"/>
     <use xlink:href="#md005e8b368" x="314.381908" y="148.031164" style="fill-opacity: 0; stroke: #89d68c; stroke-linejoin: miter"/>
     <use xlink:href="#md005e8b368" x="321.962542" y="135.397845" style="fill-opacity: 0; stroke: #89d68c; stroke-linejoin: miter"/>
     <use xlink:href="#md005e8b368" x="329.543178" y="151.385556" style="fill-opacity: 0; stroke: #89d68c; stroke-linejoin: miter"/>
     <use xlink:href="#md005e8b368" x="337.123812" y="103.965107" style="fill-opacity: 0; stroke: #89d68c; stroke-linejoin: miter"/>
     <use xlink:href="#md005e8b368" x="344.704448" y="44.248509" style="fill-opacity: 0; stroke: #89d68c; stroke-linejoin: miter"/>
     <use xlink:href="#md005e8b368" x="352.285082" y="131.384847" style="fill-opacity: 0; stroke: #89d68c; stroke-linejoin: miter"/>
     <use xlink:href="#md005e8b368" x="359.865718" y="154.551208" style="fill-opacity: 0; stroke: #89d68c; stroke-linejoin: miter"/>
     <use xlink:href="#md005e8b368" x="367.446352" y="152.615962" style="fill-opacity: 0; stroke: #89d68c; stroke-linejoin: miter"/>
     <use xlink:href="#md005e8b368" x="375.026988" y="99.718029" style="fill-opacity: 0; stroke: #89d68c; stroke-linejoin: miter"/>
     <use xlink:href="#md005e8b368" x="382.607622" y="57.909555" style="fill-opacity: 0; stroke: #89d68c; stroke-linejoin: miter"/>
     <use xlink:href="#md005e8b368" x="390.188258" y="76.361239" style="fill-opacity: 0; stroke: #89d68c; stroke-linejoin: miter"/>
     <use xlink:href="#md005e8b368" x="397.768892" y="116.316591" style="fill-opacity: 0; stroke: #89d68c; stroke-linejoin: miter"/>
     <use xlink:href="#md005e8b368" x="405.349528" y="46.07788" style="fill-opacity: 0; stroke: #89d68c; stroke-linejoin: miter"/>
     <use xlink:href="#md005e8b368" x="412.930162" y="62.383473" style="fill-opacity: 0; stroke: #89d68c; stroke-linejoin: miter"/>
     <use xlink:href="#md005e8b368" x="420.510798" y="140.61863" style="fill-opacity: 0; stroke: #89d68c; stroke-linejoin: miter"/>
     <use xlink:href="#md005e8b368" x="428.091432" y="82.494273" style="fill-opacity: 0; stroke: #89d68c; stroke-linejoin: miter"/>
     <use xlink:href="#md005e8b368" x="435.672068" y="68.256017" style="fill-opacity: 0; stroke: #89d68c; stroke-linejoin: miter"/>
     <use xlink:href="#md005e8b368" x="443.252702" y="123.220548" style="fill-opacity: 0; stroke: #89d68c; stroke-linejoin: miter"/>
     <use xlink:href="#md005e8b368" x="450.833338" y="127.54573" style="fill-opacity: 0; stroke: #89d68c; stroke-linejoin: miter"/>
     <use xlink:href="#md005e8b368" x="458.413972" y="46.599018" style="fill-opacity: 0; stroke: #89d68c; stroke-linejoin: miter"/>
     <use xlink:href="#md005e8b368" x="465.994608" y="59.506968" style="fill-opacity: 0; stroke: #89d68c; stroke-linejoin: miter"/>
     <use xlink:href="#md005e8b368" x="473.575243" y="143.706971" style="fill-opacity: 0; stroke: #89d68c; stroke-linejoin: miter"/>
     <use xlink:href="#md005e8b368" x="481.155878" y="68.80254" style="fill-opacity: 0; stroke: #89d68c; stroke-linejoin: miter"/>
     <use xlink:href="#md005e8b368" x="488.736513" y="124.709184" style="fill-opacity: 0; stroke: #89d68c; stroke-linejoin: miter"/>
     <use xlink:href="#md005e8b368" x="496.317148" y="51.986989" style="fill-opacity: 0; stroke: #89d68c; stroke-linejoin: miter"/>
     <use xlink:href="#md005e8b368" x="503.897783" y="63.813168" style="fill-opacity: 0; stroke: #89d68c; stroke-linejoin: miter"/>
     <use xlink:href="#md005e8b368" x="511.478418" y="136.389475" style="fill-opacity: 0; stroke: #89d68c; stroke-linejoin: miter"/>
     <use xlink:href="#md005e8b368" x="519.059053" y="114.127631" style="fill-opacity: 0; stroke: #89d68c; stroke-linejoin: miter"/>
     <use xlink:href="#md005e8b368" x="526.639688" y="86.086714" style="fill-opacity: 0; stroke: #89d68c; stroke-linejoin: miter"/>
     <use xlink:href="#md005e8b368" x="534.220323" y="136.737059" style="fill-opacity: 0; stroke: #89d68c; stroke-linejoin: miter"/>
     <use xlink:href="#md005e8b368" x="541.800957" y="45.020609" style="fill-opacity: 0; stroke: #89d68c; stroke-linejoin: miter"/>
     <use xlink:href="#md005e8b368" x="549.381593" y="142.248375" style="fill-opacity: 0; stroke: #89d68c; stroke-linejoin: miter"/>
     <use xlink:href="#md005e8b368" x="556.962228" y="50.849815" style="fill-opacity: 0; stroke: #89d68c; stroke-linejoin: miter"/>
     <use xlink:href="#md005e8b368" x="564.542862" y="148.925483" style="fill-opacity: 0; stroke: #89d68c; stroke-linejoin: miter"/>
     <use xlink:href="#md005e8b368" x="572.123497" y="51.699908" style="fill-opacity: 0; stroke: #89d68c; stroke-linejoin: miter"/>
     <use xlink:href="#md005e8b368" x="579.704133" y="79.854757" style="fill-opacity: 0; stroke: #89d68c; stroke-linejoin: miter"/>
     <use xlink:href="#md005e8b368" x="587.284768" y="57.788044" style="fill-opacity: 0; stroke: #89d68c; stroke-linejoin: miter"/>
     <use xlink:href="#md005e8b368" x="594.865402" y="99.486254" style="fill-opacity: 0; stroke: #89d68c; stroke-linejoin: miter"/>
     <use xlink:href="#md005e8b368" x="602.446037" y="72.071234" style="fill-opacity: 0; stroke: #89d68c; stroke-linejoin: miter"/>
     <use xlink:href="#md005e8b368" x="610.026673" y="63.182898" style="fill-opacity: 0; stroke: #89d68c; stroke-linejoin: miter"/>
     <use xlink:href="#md005e8b368" x="617.607308" y="58.940652" style="fill-opacity: 0; stroke: #89d68c; stroke-linejoin: miter"/>
     <use xlink:href="#md005e8b368" x="625.187942" y="148.615193" style="fill-opacity: 0; stroke: #89d68c; stroke-linejoin: miter"/>
     <use xlink:href="#md005e8b368" x="632.768577" y="131.944577" style="fill-opacity: 0; stroke: #89d68c; stroke-linejoin: miter"/>
     <use xlink:href="#md005e8b368" x="640.349213" y="39.805903" style="fill-opacity: 0; stroke: #89d68c; stroke-linejoin: miter"/>
     <use xlink:href="#md005e8b368" x="647.929848" y="68.496612" style="fill-opacity: 0; stroke: #89d68c; stroke-linejoin: miter"/>
     <use xlink:href="#md005e8b368" x="655.510482" y="75.427391" style="fill-opacity: 0; stroke: #89d68c; stroke-linejoin: miter"/>
     <use xlink:href="#md005e8b368" x="663.091117" y="148.307308" style="fill-opacity: 0; stroke: #89d68c; stroke-linejoin: miter"/>
     <use xlink:href="#md005e8b368" x="670.671753" y="147.656792" style="fill-opacity: 0; stroke: #89d68c; stroke-linejoin: miter"/>
     <use xlink:href="#md005e8b368" x="678.252388" y="47.122499" style="fill-opacity: 0; stroke: #89d68c; stroke-linejoin: miter"/>
     <use xlink:href="#md005e8b368" x="685.833022" y="90.69726" style="fill-opacity: 0; stroke: #89d68c; stroke-linejoin: miter"/>
     <use xlink:href="#md005e8b368" x="693.413657" y="45.170394" style="fill-opacity: 0; stroke: #89d68c; stroke-linejoin: miter"/>
     <use xlink:href="#md005e8b368" x="700.994293" y="64.921545" style="fill-opacity: 0; stroke: #89d68c; stroke-linejoin: miter"/>
     <use xlink:href="#md005e8b368" x="708.574928" y="57.034143" style="fill-opacity: 0; stroke: #89d68c; stroke-linejoin: miter"/>
     <use xlink:href="#md005e8b368" x="716.155562" y="58.52473" style="fill-opacity: 0; stroke: #89d68c; stroke-linejoin: miter"/>
     <use xlink:href="#md005e8b368" x="723.736198" y="60.937964" style="fill-opacity: 0; stroke: #89d68c; stroke-linejoin: miter"/>
     <use xlink:href="#md005e8b368" x="731.316833" y="134.545676" style="fill-opacity: 0; stroke: #89d68c; stroke-linejoin: miter"/>
     <use xlink:href="#md005e8b368" x="738.897468" y="138.091121" style="fill-opacity: 0; stroke: #89d68c; stroke-linejoin: miter"/>
     <use xlink:href="#md005e8b368" x="746.478102" y="137.230053" style="fill-opacity: 0; stroke: #89d68c; stroke-linejoin: miter"/>
     <use xlink:href="#md005e8b368" x="754.058738" y="118.083019" style="fill-opacity: 0; stroke: #89d68c; stroke-linejoin: miter"/>
     <use xlink:href="#md005e8b368" x="761.639373" y="100.380372" style="fill-opacity: 0; stroke: #89d68c; stroke-linejoin: miter"/>
     <use xlink:href="#md005e8b368" x="769.220008" y="70.890785" style="fill-opacity: 0; stroke: #89d68c; stroke-linejoin: miter"/>
     <use xlink:href="#md005e8b368" x="776.800642" y="57.153377" style="fill-opacity: 0; stroke: #89d68c; stroke-linejoin: miter"/>
     <use xlink:href="#md005e8b368" x="784.381278" y="78.869781" style="fill-opacity: 0; stroke: #89d68c; stroke-linejoin: miter"/>
     <use xlink:href="#md005e8b368" x="791.961913" y="93.065724" style="fill-opacity: 0; stroke: #89d68c; stroke-linejoin: miter"/>
     <use xlink:href="#md005e8b368" x="799.542547" y="45.727945" style="fill-opacity: 0; stroke: #89d68c; stroke-linejoin: miter"/>
     <use xlink:href="#md005e8b368" x="807.123182" y="139.464759" style="fill-opacity: 0; stroke: #89d68c; stroke-linejoin: miter"/>
    </g>
   </g>
   <g id="line2d_22">
    <path d="M 52.85 156.809082 
L 810.9135 156.809082 
" clip-path="url(#pb87cb50bb9)" style="fill: none; stroke: #8c8c8c; stroke-width: 0.8; stroke-linecap: square"/>
   </g>
   <g id="patch_103">
    <path d="M 52.85 202.84 
L 52.85 25.44 
" style="fill: none; stroke: #000000; stroke-width: 0.8; stroke-linejoin: miter; stroke-linecap: square"/>
   </g>
   <g id="patch_104">
    <path d="M 810.9135 202.84 
L 810.9135 25.44 
" style="fill: none; stroke: #000000; stroke-width: 0.8; stroke-linejoin: miter; stroke-linecap: square"/>
   </g>
   <g id="patch_105">
    <path d="M 52.85 202.84 
L 810.9135 202.84 
" style="fill: none; stroke: #000000; stroke-width: 0.8; stroke-linejoin: miter; stroke-linecap: square"/>
   </g>
   <g id="patch_106">
    <path d="M 52.85 25.44 
L 810.9135 25.44 
" style="fill: none; stroke: #000000; stroke-width: 0.8; stroke-linejoin: miter; stroke-linecap: square"/>
   </g>
   <g id="text_15">
    <!-- FD001 Prediction -->
    <g transform="translate(384.916906 19.44) scale(0.11 -0.11)">
     <defs>
      <path id="DejaVuSans-46" d="M 628 4666 
L 3309 4666 
L 3309 4134 
L 1259 4134 
L 1259 2759 
L 3109 2759 
L 3109 2228 
L 1259 2228 
L 1259 0 
L 628 0 
L 628 4666 
z
" transform="scale(0.015625)"/>
      <path id="DejaVuSans-44" d="M 1259 4147 
L 1259 519 
L 2022 519 
Q 2988 519 3436 956 
Q 3884 1394 3884 2338 
Q 3884 3275 3436 3711 
Q 2988 4147 2022 4147 
L 1259 4147 
z
M 628 4666 
L 1925 4666 
Q 3281 4666 3915 4102 
Q 4550 3538 4550 2338 
Q 4550 1131 3912 565 
Q 3275 0 1925 0 
L 628 0 
L 628 4666 
z
" transform="scale(0.015625)"/>
      <path id="DejaVuSans-50" d="M 1259 4147 
L 1259 2394 
L 2053 2394 
Q 2494 2394 2734 2622 
Q 2975 2850 2975 3272 
Q 2975 3691 2734 3919 
Q 2494 4147 2053 4147 
L 1259 4147 
z
M 628 4666 
L 2053 4666 
Q 2838 4666 3239 4311 
Q 3641 3956 3641 3272 
Q 3641 2581 3239 2228 
Q 2838 1875 2053 1875 
L 1259 1875 
L 1259 0 
L 628 0 
L 628 4666 
z
" transform="scale(0.015625)"/>
      <path id="DejaVuSans-72" d="M 2631 2963 
Q 2534 3019 2420 3045 
Q 2306 3072 2169 3072 
Q 1681 3072 1420 2755 
Q 1159 2438 1159 1844 
L 1159 0 
L 581 0 
L 581 3500 
L 1159 3500 
L 1159 2956 
Q 1341 3275 1631 3429 
Q 1922 3584 2338 3584 
Q 2397 3584 2469 3576 
Q 2541 3569 2628 3553 
L 2631 2963 
z
" transform="scale(0.015625)"/>
      <path id="DejaVuSans-74" d="M 1172 4494 
L 1172 3500 
L 2356 3500 
L 2356 3053 
L 1172 3053 
L 1172 1153 
Q 1172 725 1289 603 
Q 1406 481 1766 481 
L 2356 481 
L 2356 0 
L 1766 0 
Q 1100 0 847 248 
Q 594 497 594 1153 
L 594 3053 
L 172 3053 
L 172 3500 
L 594 3500 
L 594 4494 
L 1172 4494 
z
" transform="scale(0.015625)"/>
      <path id="DejaVuSans-6f" d="M 1959 3097 
Q 1497 3097 1228 2736 
Q 959 2375 959 1747 
Q 959 1119 1226 758 
Q 1494 397 1959 397 
Q 2419 397 2687 759 
Q 2956 1122 2956 1747 
Q 2956 2369 2687 2733 
Q 2419 3097 1959 3097 
z
M 1959 3584 
Q 2709 3584 3137 3096 
Q 3566 2609 3566 1747 
Q 3566 888 3137 398 
Q 2709 -91 1959 -91 
Q 1206 -91 779 398 
Q 353 888 353 1747 
Q 353 2609 779 3096 
Q 1206 3584 1959 3584 
z
" transform="scale(0.015625)"/>
     </defs>
     <use xlink:href="#DejaVuSans-46"/>
     <use xlink:href="#DejaVuSans-44" x="57.519531"/>
     <use xlink:href="#DejaVuSans-30" x="134.521484"/>
     <use xlink:href="#DejaVuSans-30" x="198.144531"/>
     <use xlink:href="#DejaVuSans-31" x="261.767578"/>
     <use xlink:href="#DejaVuSans-20" x="325.390625"/>
     <use xlink:href="#DejaVuSans-50" x="357.177734"/>
     <use xlink:href="#DejaVuSans-72" x="415.730469"/>
     <use xlink:href="#DejaVuSans-65" x="454.59375"/>
     <use xlink:href="#DejaVuSans-64" x="516.117188"/>
     <use xlink:href="#DejaVuSans-69" x="579.59375"/>
     <use xlink:href="#DejaVuSans-63" x="607.376953"/>
     <use xlink:href="#DejaVuSans-74" x="662.357422"/>
     <use xlink:href="#DejaVuSans-69" x="701.566406"/>
     <use xlink:href="#DejaVuSans-6f" x="729.349609"/>
     <use xlink:href="#DejaVuSans-6e" x="790.53125"/>
    </g>
   </g>
   <g id="legend_1">
    <g id="patch_107">
     <path d="M 714.49475 78.81 
L 805.3135 78.81 
Q 806.9135 78.81 806.9135 77.21 
L 806.9135 31.04 
Q 806.9135 29.44 805.3135 29.44 
L 714.49475 29.44 
Q 712.89475 29.44 712.89475 31.04 
L 712.89475 77.21 
Q 712.89475 78.81 714.49475 78.81 
z
" style="fill: #ffffff; opacity: 0.8; stroke: #cccccc; stroke-linejoin: miter"/>
    </g>
    <g id="line2d_23">
     <path d="M 716.09475 35.91875 
L 724.09475 35.91875 
L 732.09475 35.91875 
" style="fill: none; stroke-dasharray: 3.7,1.6; stroke-dashoffset: 0; stroke: #dc8a8a"/>
     <g>
      <use xlink:href="#m8c3f326e6e" x="724.09475" y="35.91875" style="fill-opacity: 0; stroke: #dc8a8a; stroke-linejoin: miter"/>
     </g>
    </g>
    <g id="text_16">
     <!-- True RUL -->
     <g transform="translate(738.49475 38.71875) scale(0.08 -0.08)">
      <defs>
       <path id="DejaVuSans-54" d="M -19 4666 
L 3928 4666 
L 3928 4134 
L 2272 4134 
L 2272 0 
L 1638 0 
L 1638 4134 
L -19 4134 
L -19 4666 
z
" transform="scale(0.015625)"/>
       <path id="DejaVuSans-75" d="M 544 1381 
L 544 3500 
L 1119 3500 
L 1119 1403 
Q 1119 906 1312 657 
Q 1506 409 1894 409 
Q 2359 409 2629 706 
Q 2900 1003 2900 1516 
L 2900 3500 
L 3475 3500 
L 3475 0 
L 2900 0 
L 2900 538 
Q 2691 219 2414 64 
Q 2138 -91 1772 -91 
Q 1169 -91 856 284 
Q 544 659 544 1381 
z
M 1991 3584 
L 1991 3584 
z
" transform="scale(0.015625)"/>
      </defs>
      <use xlink:href="#DejaVuSans-54"/>
      <use xlink:href="#DejaVuSans-72" x="46.333984"/>
      <use xlink:href="#DejaVuSans-75" x="87.447266"/>
      <use xlink:href="#DejaVuSans-65" x="150.826172"/>
      <use xlink:href="#DejaVuSans-20" x="212.349609"/>
      <use xlink:href="#DejaVuSans-52" x="244.136719"/>
      <use xlink:href="#DejaVuSans-55" x="313.619141"/>
      <use xlink:href="#DejaVuSans-4c" x="386.8125"/>
     </g>
    </g>
    <g id="line2d_24">
     <path d="M 716.09475 47.66125 
L 724.09475 47.66125 
L 732.09475 47.66125 
" style="fill: none; stroke-dasharray: 3.7,1.6; stroke-dashoffset: 0; stroke: #89d68c"/>
     <g>
      <use xlink:href="#md005e8b368" x="724.09475" y="47.66125" style="fill-opacity: 0; stroke: #89d68c; stroke-linejoin: miter"/>
     </g>
    </g>
    <g id="text_17">
     <!-- Predicted RUL -->
     <g transform="translate(738.49475 50.46125) scale(0.08 -0.08)">
      <use xlink:href="#DejaVuSans-50"/>
      <use xlink:href="#DejaVuSans-72" x="58.552734"/>
      <use xlink:href="#DejaVuSans-65" x="97.416016"/>
      <use xlink:href="#DejaVuSans-64" x="158.939453"/>
      <use xlink:href="#DejaVuSans-69" x="222.416016"/>
      <use xlink:href="#DejaVuSans-63" x="250.199219"/>
      <use xlink:href="#DejaVuSans-74" x="305.179688"/>
      <use xlink:href="#DejaVuSans-65" x="344.388672"/>
      <use xlink:href="#DejaVuSans-64" x="405.912109"/>
      <use xlink:href="#DejaVuSans-20" x="469.388672"/>
      <use xlink:href="#DejaVuSans-52" x="501.175781"/>
      <use xlink:href="#DejaVuSans-55" x="570.658203"/>
      <use xlink:href="#DejaVuSans-4c" x="643.851562"/>
     </g>
    </g>
    <g id="patch_108">
     <path d="M 716.09475 62.20375 
L 732.09475 62.20375 
L 732.09475 56.60375 
L 716.09475 56.60375 
z
" style="fill: #89d68c; fill-opacity: 0.18; stroke: #89d68c; stroke-opacity: 0.18; stroke-linejoin: miter"/>
    </g>
    <g id="text_18">
     <!-- MC Dropout CI -->
     <g transform="translate(738.49475 62.20375) scale(0.08 -0.08)">
      <defs>
       <path id="DejaVuSans-4d" d="M 628 4666 
L 1569 4666 
L 2759 1491 
L 3956 4666 
L 4897 4666 
L 4897 0 
L 4281 0 
L 4281 4097 
L 3078 897 
L 2444 897 
L 1241 4097 
L 1241 0 
L 628 0 
L 628 4666 
z
" transform="scale(0.015625)"/>
       <path id="DejaVuSans-70" d="M 1159 525 
L 1159 -1331 
L 581 -1331 
L 581 3500 
L 1159 3500 
L 1159 2969 
Q 1341 3281 1617 3432 
Q 1894 3584 2278 3584 
Q 2916 3584 3314 3078 
Q 3713 2572 3713 1747 
Q 3713 922 3314 415 
Q 2916 -91 2278 -91 
Q 1894 -91 1617 61 
Q 1341 213 1159 525 
z
M 3116 1747 
Q 3116 2381 2855 2742 
Q 2594 3103 2138 3103 
Q 1681 3103 1420 2742 
Q 1159 2381 1159 1747 
Q 1159 1113 1420 752 
Q 1681 391 2138 391 
Q 2594 391 2855 752 
Q 3116 1113 3116 1747 
z
" transform="scale(0.015625)"/>
      </defs>
      <use xlink:href="#DejaVuSans-4d"/>
      <use xlink:href="#DejaVuSans-43" x="86.279297"/>
      <use xlink:href="#DejaVuSans-20" x="156.103516"/>
      <use xlink:href="#DejaVuSans-44" x="187.890625"/>
      <use xlink:href="#DejaVuSans-72" x="264.892578"/>
      <use xlink:href="#DejaVuSans-6f" x="303.755859"/>
      <use xlink:href="#DejaVuSans-70" x="364.9375"/>
      <use xlink:href="#DejaVuSans-6f" x="428.414062"/>
      <use xlink:href="#DejaVuSans-75" x="489.595703"/>
      <use xlink:href="#DejaVuSans-74" x="552.974609"/>
      <use xlink:href="#DejaVuSans-20" x="592.183594"/>
      <use xlink:href="#DejaVuSans-43" x="623.970703"/>
      <use xlink:href="#DejaVuSans-49" x="693.794922"/>
     </g>
    </g>
    <g id="patch_109">
     <path d="M 716.09475 73.94625 
L 732.09475 73.94625 
L 732.09475 68.34625 
L 716.09475 68.34625 
z
" style="fill: #5fd6e8; opacity: 0.9"/>
    </g>
    <g id="text_19">
     <!-- Error (Pred-True) -->
     <g transform="translate(738.49475 73.94625) scale(0.08 -0.08)">
      <defs>
       <path id="DejaVuSans-2d" d="M 313 2009 
L 1997 2009 
L 1997 1497 
L 313 1497 
L 313 2009 
z
" transform="scale(0.015625)"/>
      </defs>
      <use xlink:href="#DejaVuSans-45"/>
      <use xlink:href="#DejaVuSans-72" x="63.183594"/>
      <use xlink:href="#DejaVuSans-72" x="102.546875"/>
      <use xlink:href="#DejaVuSans-6f" x="141.410156"/>
      <use xlink:href="#DejaVuSans-72" x="202.591797"/>
      <use xlink:href="#DejaVuSans-20" x="243.705078"/>
      <use xlink:href="#DejaVuSans-28" x="275.492188"/>
      <use xlink:href="#DejaVuSans-50" x="314.505859"/>
      <use xlink:href="#DejaVuSans-72" x="373.058594"/>
      <use xlink:href="#DejaVuSans-65" x="411.921875"/>
      <use xlink:href="#DejaVuSans-64" x="473.445312"/>
      <use xlink:href="#DejaVuSans-2d" x="536.921875"/>
      <use xlink:href="#DejaVuSans-54" x="563.880859"/>
      <use xlink:href="#DejaVuSans-72" x="610.214844"/>
      <use xlink:href="#DejaVuSans-75" x="651.328125"/>
      <use xlink:href="#DejaVuSans-65" x="714.707031"/>
      <use xlink:href="#DejaVuSans-29" x="776.230469"/>
     </g>
    </g>
   </g>
  </g>
 </g>
 <defs>
  <clipPath id="pb87cb50bb9">
   <rect x="52.85" y="25.44" width="758.0635" height="177.4"/>
  </clipPath>
 </defs>
</svg>
